<?xml version="1.0" standalone="no"?>
<!DOCTYPE svg PUBLIC "-//W3C//DTD SVG 20010904//EN"
 "http://www.w3.org/TR/2001/REC-SVG-20010904/DTD/svg10.dtd">
<svg version="1.0" xmlns="http://www.w3.org/2000/svg"
 width="1000.000000pt" height="1000.000000pt" viewBox="0 0 1000.000000 1000.000000"
 preserveAspectRatio="xMidYMid meet">

<g transform="translate(0.000000,1000.000000) scale(0.100000,-0.100000)"
fill="#000000" stroke="none">
<path d="M5965 8235 c-143 -29 -327 -65 -409 -80 -107 -20 -144 -30 -132 -37
9 -5 30 -7 46 -4 17 2 30 1 30 -3 0 -4 12 -8 28 -9 29 -1 92 -10 132 -18 14
-2 55 -7 93 -11 37 -3 67 -9 67 -13 0 -4 12 -5 28 -3 60 11 710 144 762 157
50 13 52 14 20 15 -20 1 -105 12 -190 26 -85 14 -168 27 -185 29 -16 2 -147
-20 -290 -49z"/>
<path d="M6590 8196 c-58 -12 -285 -60 -505 -105 l-400 -82 -89 13 c-49 7 -83
14 -77 16 6 2 48 -1 94 -7 49 -6 96 -7 117 -2 33 8 32 9 -21 10 -30 1 -105 10
-165 21 -60 10 -131 22 -159 25 -27 4 -60 8 -73 10 -35 6 -21 -19 14 -26 l29
-6 -37 -7 c-21 -5 -38 -12 -38 -18 0 -5 -4 -6 -10 -3 -6 4 -10 -45 -10 -140
l0 -145 -22 5 c-27 6 -403 71 -465 80 l-43 7 0 145 c0 133 -1 144 -17 139 -10
-2 -44 -10 -75 -16 l-58 -11 -1 -102 c0 -65 -3 -94 -9 -82 -4 12 -23 32 -42
45 -33 22 -35 27 -37 84 -3 84 -11 84 -11 0 l0 -70 -35 4 c-25 3 -35 0 -35 -9
0 -9 -5 -7 -11 5 -8 13 -13 15 -19 6 -5 -9 -13 -9 -25 -2 -21 11 -57 4 -49
-10 4 -6 -3 -5 -15 1 -15 8 -21 9 -21 1 0 -6 -4 -8 -10 -5 -5 3 -10 2 -10 -3
0 -5 -12 -7 -26 -4 -18 3 -33 -3 -54 -23 -18 -17 -35 -25 -45 -21 -9 3 -13 2
-10 -4 3 -6 -1 -10 -10 -10 -9 0 -30 -9 -45 -20 l-29 -21 -12 23 c-7 13 -13
25 -13 28 -1 3 -3 4 -6 4 -3 -1 -279 -54 -615 -119 -335 -64 -619 -120 -629
-124 -27 -10 154 -43 229 -42 70 2 307 55 285 64 -8 4 3 4 25 1 25 -3 35 -2
27 4 -14 9 213 55 280 56 21 1 38 4 38 8 0 4 6 5 13 3 6 -3 89 8 182 24 183
30 185 30 185 -24 0 -47 -11 -75 -29 -76 -34 -2 82 -31 282 -70 l207 -41 175
36 c96 20 177 36 181 36 3 0 4 18 2 41 l-4 41 41 -6 c115 -17 202 -18 279 -2
95 19 106 20 106 3 0 -9 -30 -20 -87 -32 -98 -20 -1036 -222 -1206 -259 l-108
-24 -282 54 c-334 65 -647 128 -1116 224 -189 39 -346 69 -347 67 -4 -4 15
-14 66 -35 25 -11 25 -11 3 -17 -13 -4 -20 -12 -16 -21 3 -8 -3 -17 -13 -21
-26 -9 -35 -24 -28 -47 4 -12 2 -16 -5 -12 -6 4 -11 0 -12 -11 -1 -28 -7 -54
-13 -61 -3 -3 -6 0 -6 6 0 21 -2 27 -9 37 -4 6 -7 52 -7 102 1 51 -2 93 -6 93
-10 0 -10 -82 -1 -318 l6 -181 35 -17 c26 -12 31 -18 21 -25 -11 -7 -11 -9 -1
-9 7 0 11 -4 7 -9 -14 -24 58 -31 96 -10 19 10 30 54 17 67 -11 11 9 28 45 37
30 8 38 -9 10 -19 -14 -6 -15 -9 -3 -16 11 -7 11 -11 1 -24 -11 -13 -11 -16 0
-17 8 0 2 -5 -13 -11 -16 -5 -28 -14 -28 -19 0 -6 4 -8 9 -4 5 3 13 1 16 -5 4
-6 3 -10 -2 -9 -17 3 -33 -1 -33 -9 0 -5 25 -8 57 -7 41 2 60 7 69 20 7 10 11
21 9 25 -4 6 17 20 29 20 2 0 3 -13 2 -30 -1 -16 -6 -30 -13 -30 -6 0 -15 -4
-18 -10 -3 -6 1 -7 9 -4 9 3 16 1 16 -5 0 -6 12 -9 27 -7 37 5 63 16 63 27 0
5 11 9 25 9 21 0 24 -3 17 -17 -5 -10 -7 -24 -4 -32 3 -8 0 -11 -7 -7 -6 4
-11 2 -11 -4 0 -8 -7 -9 -17 -5 -31 12 -65 16 -59 7 3 -5 -1 -9 -9 -9 -8 0
-12 4 -9 9 3 4 -6 4 -19 -1 -14 -6 -28 -7 -33 -3 -4 4 -4 1 0 -6 4 -7 13 -10
19 -6 7 3 4 -1 -6 -9 -16 -13 -16 -15 -2 -21 9 -3 14 -2 11 3 -7 11 24 24 33
15 3 -4 0 -9 -6 -11 -15 -5 -17 -33 -3 -33 6 0 10 5 10 10 0 6 5 10 11 10 5 0
7 -4 4 -10 -3 -6 1 -7 9 -4 14 5 14 8 0 21 -13 14 -13 17 3 28 20 15 33 11 33
-10 0 -9 -6 -12 -17 -8 -15 6 -16 5 -3 -9 9 -10 17 -12 21 -6 4 7 13 7 25 -1
17 -9 17 -10 2 -11 -10 0 -18 -4 -18 -8 0 -7 -19 -12 -62 -15 -10 -1 -18 -5
-18 -9 0 -4 -7 -8 -16 -8 -9 0 -12 -5 -8 -12 5 -9 2 -8 -10 1 -15 12 -19 12
-33 -2 -15 -15 -15 -18 3 -39 l19 -23 -22 18 c-12 11 -27 16 -33 12 -7 -4 -10
0 -8 10 2 10 -3 20 -11 23 -8 3 -11 0 -7 -7 4 -6 2 -11 -4 -11 -8 0 -8 -6 0
-20 6 -12 7 -20 1 -20 -5 0 -11 5 -13 12 -3 8 -9 8 -24 0 -10 -6 -14 -12 -7
-12 8 0 7 -9 -4 -30 -11 -23 -18 -28 -27 -21 -7 6 -15 8 -19 5 -3 -3 -14 -1
-24 5 -15 8 -25 5 -44 -13 -14 -13 -32 -22 -40 -20 -24 3 -20 -166 4 -191 9
-9 17 -21 17 -27 0 -6 8 -7 18 -3 13 5 14 4 5 -6 -10 -10 -18 -8 -37 10 l-23
22 1 -23 c1 -17 8 -24 29 -26 23 -3 25 -5 13 -18 -8 -8 -19 -14 -25 -14 -10 0
-15 -17 -12 -50 0 -8 2 -122 4 -252 l3 -238 -185 -2 c-294 -3 -303 -4 -506
-57 -104 -28 -173 -48 -152 -45 32 4 37 2 37 -16 0 -24 -9 -25 -57 -5 -19 8
-41 15 -47 15 -20 0 18 -20 60 -31 40 -10 42 -13 48 -56 3 -25 6 -74 6 -109 0
-50 -3 -64 -15 -64 -8 0 -15 -4 -15 -10 0 -5 -8 -7 -17 -4 -15 5 -15 3 2 -11
11 -9 65 -30 120 -46 55 -17 111 -34 125 -39 41 -15 102 -19 127 -9 18 6 25 5
29 -6 5 -12 10 -12 32 -2 28 14 58 12 79 -5 10 -8 13 -5 13 10 0 42 9 51 40
39 21 -8 49 -7 107 2 50 8 121 10 198 7 153 -8 180 -3 195 35 7 16 19 29 28
29 11 0 10 4 -6 18 -26 23 -15 42 38 62 51 19 64 31 48 41 -10 7 -9 9 5 9 9 0
17 4 17 8 0 4 10 8 23 9 21 2 21 1 -3 -13 l-25 -15 36 3 c20 2 41 -2 48 -9 16
-17 28 -16 35 2 3 8 1 15 -4 15 -6 0 -10 -5 -10 -12 0 -9 -3 -9 -12 0 -10 10
-10 15 2 22 8 5 19 5 26 0 11 -10 24 -3 24 13 0 5 -17 7 -40 4 -26 -3 -43 -1
-51 9 -9 11 -4 13 25 10 20 -1 36 1 36 5 0 4 7 10 15 13 10 3 15 1 14 -7 -3
-20 12 -47 28 -47 8 0 11 5 8 10 -3 6 -1 10 5 10 7 0 10 -7 7 -15 -4 -8 -1
-17 5 -21 7 -4 8 -3 4 4 -4 7 -2 12 3 12 6 0 11 -7 11 -15 0 -17 -21 -20 -36
-5 -12 12 -56 1 -51 -13 2 -6 41 -21 88 -33 350 -91 399 -105 394 -114 -2 -4
6 -6 18 -5 12 1 42 -4 67 -11 177 -54 282 -76 303 -66 12 6 67 16 121 22 55 6
102 12 104 15 7 7 -9 44 -26 62 -12 11 -13 18 -5 20 9 3 11 18 6 49 -3 24 -4
44 -2 44 2 0 60 7 129 15 127 15 139 13 140 -22 0 -7 11 -48 25 -91 l25 -80
85 -40 c74 -36 85 -44 85 -67 0 -14 -4 -24 -9 -21 -5 3 -58 -5 -117 -18 -60
-14 -143 -28 -184 -31 -83 -7 -129 -23 -108 -37 31 -22 -46 8 -159 62 -68 32
-125 54 -129 49 -11 -18 8 -49 34 -55 46 -11 210 -96 243 -126 l31 -29 -28 6
c-23 5 -26 4 -14 -5 12 -10 11 -11 -7 -7 -12 3 -23 1 -25 -4 -2 -5 -18 -10
-36 -12 -17 -1 -32 -6 -32 -11 0 -5 -3 -6 -7 -3 -3 4 -11 3 -17 -2 -6 -5 -130
-45 -275 -90 l-263 -81 -522 150 c-286 82 -647 186 -801 231 -154 44 -356 103
-449 129 l-169 48 7 -182 c3 -99 8 -332 11 -516 4 -184 8 -415 10 -512 2 -116
-1 -178 -8 -181 -7 -2 -7 -9 1 -23 7 -13 7 -25 1 -37 -6 -9 -6 -17 -1 -17 5 0
9 -7 9 -16 0 -15 -1 -15 -12 0 -7 9 -11 27 -10 40 3 23 -20 44 -33 31 -3 -3 0
-5 6 -5 18 0 10 -24 -10 -32 -14 -6 -16 -12 -8 -32 7 -20 6 -24 -5 -19 -8 3
-15 9 -15 14 0 4 -10 5 -22 0 -32 -12 -28 -35 7 -42 27 -6 27 -7 5 -7 -28 -1
-64 21 -53 32 4 4 0 4 -8 1 -9 -3 -16 -12 -16 -20 0 -8 4 -12 9 -9 18 12 29
-8 11 -23 -17 -13 -16 -13 4 -4 14 7 24 8 28 1 3 -5 1 -10 -4 -10 -6 0 -10 -6
-9 -12 2 -7 -9 -14 -24 -16 -23 -3 -50 -32 -30 -32 4 0 13 -9 20 -21 8 -12 9
-18 3 -14 -6 3 -23 9 -38 11 -35 7 -45 13 -37 26 4 6 9 5 15 -3 4 -7 11 -11
14 -8 11 11 14 49 4 55 -5 3 -9 2 -8 -3 3 -18 -1 -34 -9 -29 -4 2 -16 -2 -27
-10 -10 -8 -14 -14 -7 -14 6 0 9 -7 6 -15 -4 -8 -11 -12 -17 -8 -6 3 -7 1 -3
-5 12 -20 15 -51 5 -57 -5 -4 -9 -11 -9 -17 0 -6 8 -4 18 5 10 10 23 17 28 17
5 0 1 -5 -9 -11 -9 -6 -15 -15 -11 -20 3 -5 2 -9 -3 -8 -4 1 -17 1 -28 0 -14
-1 -16 -4 -8 -12 8 -8 5 -17 -14 -34 -22 -18 -24 -23 -10 -28 11 -4 14 -2 11
8 -4 10 0 12 15 8 11 -3 18 -10 14 -16 -3 -5 -2 -8 3 -5 5 4 23 0 39 -7 l30
-13 -27 -1 c-16 -1 -28 -5 -28 -11 0 -5 -7 -10 -16 -10 -8 0 -13 -4 -10 -9 8
-12 -22 -23 -37 -15 -9 5 -9 4 0 -6 6 -7 25 -13 42 -14 17 -1 36 -8 43 -15 7
-8 8 -11 3 -8 -6 3 -18 -1 -28 -8 -14 -10 -15 -15 -6 -21 7 -4 15 -2 17 4 2 7
8 12 14 12 6 0 8 -7 4 -15 -3 -8 -2 -14 2 -13 15 3 261 -100 280 -116 7 -7 14
-22 17 -34 3 -20 -4 -19 -133 27 -75 27 -240 87 -366 135 -126 48 -229 85
-230 84 -1 -2 1 -54 4 -117 l5 -114 390 -152 c215 -83 554 -216 755 -294 1282
-502 3828 -1492 4065 -1581 124 -46 174 -49 263 -14 37 15 72 30 77 34 9 7
235 122 845 432 129 66 240 123 245 128 6 4 111 59 235 123 124 63 277 141
340 174 63 33 187 97 275 143 88 45 198 103 245 128 47 24 137 72 200 104 63
33 198 104 300 158 345 182 352 186 630 335 74 40 158 85 185 100 28 14 65 39
84 54 31 26 35 35 42 97 9 76 11 194 5 194 -3 0 -58 -27 -123 -59 -114 -58
-166 -71 -104 -27 16 11 36 35 44 52 15 30 14 31 -11 41 -21 9 -22 11 -7 11
11 -1 38 0 60 1 l40 3 -40 13 c-22 8 -61 17 -87 20 -34 5 -45 11 -41 21 4 10
0 12 -10 8 -9 -3 -25 3 -37 14 -20 19 -74 37 -65 22 2 -4 -12 -6 -31 -6 -19 1
-38 7 -42 13 -5 7 -13 9 -21 3 -8 -4 -24 -4 -37 0 -15 6 -24 5 -28 -3 -2 -7
-5 -4 -5 6 -1 14 -6 17 -21 12 -14 -4 -20 -2 -18 7 2 7 -5 12 -14 12 -10 -1
-16 2 -13 6 3 5 -1 11 -7 13 -9 4 -8 6 3 6 19 1 14 57 -8 82 -15 18 -14 40 2
51 5 4 13 2 17 -5 5 -8 8 -7 8 3 0 9 -5 21 -10 26 -8 8 -7 19 0 39 8 20 8 31
0 39 -8 8 -9 6 -5 -6 4 -10 3 -18 -3 -18 -6 0 -14 9 -17 20 -4 11 -17 32 -29
48 -25 30 -42 82 -27 82 5 0 13 -4 16 -10 9 -15 25 -12 25 5 0 8 9 15 20 15
11 0 20 6 21 13 0 6 2 27 4 46 2 23 0 29 -6 20 -8 -12 -10 -12 -18 0 -8 13
-12 13 -28 1 -10 -8 -15 -10 -11 -6 4 5 3 15 -3 22 -19 23 -2 47 26 40 23 -6
25 -4 21 25 -1 17 -10 39 -19 50 -10 10 -16 23 -16 27 1 4 0 9 -1 12 -1 3 -4
16 -5 30 -1 14 -6 34 -10 45 -8 19 -8 20 12 2 15 -13 23 -15 28 -7 4 6 4 14 1
17 -3 4 -6 1 -6 -6 0 -7 -5 -9 -11 -6 -6 4 -8 13 -6 19 3 7 1 19 -4 27 -5 9
-2 23 8 38 14 22 14 25 -2 37 -16 12 -14 54 4 54 4 0 6 14 3 30 -3 24 -9 30
-28 30 -29 0 -42 -28 -50 -109 -3 -31 -7 -61 -9 -68 -2 -7 0 -15 5 -18 6 -4 5
-15 -2 -28 -7 -12 -11 -26 -10 -30 1 -5 -2 -6 -7 -3 -16 10 -24 -14 -10 -30
10 -12 9 -13 -4 -8 -11 4 -16 0 -17 -13 -1 -49 -5 -60 -17 -56 -13 5 -18 19
-13 38 1 6 4 38 5 72 3 58 25 118 49 136 6 5 0 5 -13 2 -22 -7 -23 -5 -17 19
3 14 3 25 -1 24 -5 -2 -9 1 -10 6 -1 5 -12 14 -25 20 -19 10 -25 10 -32 -3
-13 -22 -27 -80 -32 -136 -5 -58 -12 -110 -14 -110 -1 0 -3 -18 -5 -40 -1 -22
-5 -48 -9 -57 -4 -9 -3 -25 2 -35 12 -21 -1 -53 -22 -53 -9 0 -13 38 -14 158
-2 168 -9 240 -24 259 -5 7 -5 14 1 18 8 4 7 15 -2 33 -8 15 -12 35 -9 46 4
17 3 17 -18 -2 -17 -15 -20 -26 -14 -44 11 -34 21 -178 13 -194 -3 -5 -4 -19
-3 -31 0 -13 -3 -23 -8 -23 -5 0 -4 -9 2 -20 7 -13 8 -51 4 -108 -4 -48 -7
-93 -7 -99 0 -7 -4 -13 -9 -13 -5 0 -8 6 -7 13 2 21 -13 57 -22 51 -5 -3 -6 2
-3 10 3 8 1 24 -5 35 -10 17 -9 20 4 15 8 -4 15 -1 15 5 0 6 -4 11 -10 11 -5
0 -10 5 -10 11 0 5 5 7 10 4 9 -6 11 5 14 63 1 9 -4 16 -10 15 -7 -1 -10 11
-7 33 2 20 0 33 -6 30 -5 -3 -12 1 -15 10 -4 12 -2 15 9 10 10 -4 15 1 15 14
0 11 -4 20 -9 20 -5 0 -12 7 -15 16 -3 8 -2 12 3 9 5 -3 12 -1 16 5 3 5 2 10
-3 10 -10 0 -9 36 1 46 12 12 8 44 -5 44 -10 0 -9 3 1 9 8 5 11 16 6 30 -6 21
-8 22 -26 5 -21 -19 -26 -5 -9 27 7 13 7 19 0 19 -5 0 -9 5 -7 11 1 6 -8 15
-20 20 -18 6 -23 5 -23 -7 0 -9 -6 -14 -12 -11 -15 5 -18 -69 -5 -90 5 -8 3
-13 -7 -13 -8 0 -17 6 -20 13 -3 6 -4 0 -2 -15 1 -15 -1 -25 -5 -22 -13 8 -11
-10 4 -25 10 -11 9 -14 -1 -18 -8 -3 -5 -11 10 -25 13 -11 17 -17 11 -13 -7 3
-13 0 -13 -7 0 -9 -3 -9 -10 2 -8 13 -10 13 -10 -2 0 -9 5 -20 10 -23 15 -9
12 -25 -4 -25 -24 0 -29 -20 -10 -41 16 -18 16 -19 1 -13 -13 5 -16 2 -11 -10
3 -9 9 -16 13 -16 3 0 5 -24 5 -52 -1 -34 -6 -52 -13 -51 -6 2 -11 -2 -11 -8
0 -6 -6 -9 -13 -6 -9 3 -13 -6 -12 -32 1 -41 12 -64 26 -56 12 8 11 -7 -1 -41
-10 -26 -11 -26 -32 -8 -21 19 -21 19 -10 -3 9 -16 9 -23 -1 -26 -9 -4 -9 -6
1 -6 6 -1 12 -6 12 -12 0 -5 -5 -7 -10 -4 -6 4 -8 -3 -6 -17 3 -13 5 -29 5
-37 1 -11 4 -11 16 -1 12 10 16 8 24 -13 9 -24 8 -64 -3 -74 -2 -2 -13 -5 -24
-6 -16 -1 -18 -4 -10 -15 8 -9 8 -16 -2 -25 -8 -8 -11 -8 -7 -1 4 7 -1 18 -11
25 -14 11 -15 11 -5 0 6 -7 9 -20 6 -28 -5 -12 -7 -12 -14 -1 -6 9 -8 6 -7 -9
2 -14 8 -20 19 -18 10 2 19 -2 22 -8 3 -8 -11 -13 -41 -14 -36 -1 -50 3 -60
18 -7 11 -18 17 -23 14 -5 -3 -6 0 -3 8 7 18 -60 48 -117 51 l-44 3 4 334 c2
184 6 431 10 548 l6 215 160 61 160 61 7 279 c12 523 29 1517 26 1521 -2 1
-49 -10 -103 -26 -426 -122 -1150 -320 -1173 -320 -16 0 -119 18 -228 40 -109
22 -200 40 -201 40 -2 0 -3 -12 -3 -26 0 -20 -4 -25 -17 -22 -10 3 -153 31
-317 64 -199 39 -291 61 -275 65 l24 7 -24 1 c-13 1 -22 3 -19 7 3 3 45 -2 93
-11 91 -17 200 -14 239 7 12 6 50 22 86 35 45 17 54 22 29 18 -20 -3 -49 -1
-64 5 -27 10 -27 11 -9 25 12 9 14 14 6 15 -22 0 -2 20 21 21 21 0 21 1 2 8
-19 8 -19 8 5 16 25 8 58 35 43 35 -4 0 -1 5 7 11 15 11 -3 9 -105 -8 l-40 -6
28 24 c24 21 28 32 30 84 2 51 5 60 22 63 11 1 52 9 90 18 39 8 81 17 94 20
20 4 22 7 10 15 -11 7 -9 9 9 9 22 0 22 2 22 118 l0 118 98 -17 c53 -10 98
-18 100 -19 1 0 2 -55 3 -122 0 -78 4 -116 9 -103 5 11 9 66 9 123 1 93 3 103
19 98 9 -2 97 -17 195 -32 l177 -28 0 -128 c0 -84 4 -127 10 -123 6 4 10 57
10 126 l0 121 28 -6 c52 -11 283 -46 299 -46 47 0 -30 15 -447 84 -250 42
-467 79 -482 82 l-28 6 0 319 0 319 -27 -1 c-16 0 -75 -11 -133 -23z m-1167
-143 c-7 -2 -19 -2 -25 0 -7 3 -2 5 12 5 14 0 19 -2 13 -5z m65 -10 c-10 -2
-26 -2 -35 0 -10 3 -2 5 17 5 19 0 27 -2 18 -5z m42 -78 c58 -8 111 -15 118
-15 9 0 12 -43 12 -180 0 -164 -2 -180 -17 -181 -17 -1 -17 -2 0 -6 12 -3 17
-15 17 -39 0 -26 -4 -34 -17 -34 -41 2 -264 46 -264 53 1 4 1 22 0 40 0 26 -2
28 -9 12 -16 -42 -23 55 -9 144 7 47 13 119 14 159 0 72 0 72 25 67 14 -3 72
-12 130 -20z m739 -190 c-13 -12 -478 -115 -522 -115 -70 0 -1 20 203 60 118
22 233 45 255 49 48 11 70 13 64 6z m-1172 -411 c-3 -3 -12 -4 -19 -1 -8 3 -5
6 6 6 11 1 17 -2 13 -5z m-50 -10 c-3 -3 -12 -4 -19 -1 -8 3 -5 6 6 6 11 1 17
-2 13 -5z m-40 -10 c-3 -3 -12 -4 -19 -1 -8 3 -5 6 6 6 11 1 17 -2 13 -5z
m186 -1 c-7 -2 -19 -2 -25 0 -7 3 -2 5 12 5 14 0 19 -2 13 -5z m-226 -9 c-3
-3 -12 -4 -19 -1 -8 3 -5 6 6 6 11 1 17 -2 13 -5z m182 2 c-2 -2 -53 -15 -114
-30 -419 -99 -542 -127 -635 -146 -57 -12 -106 -23 -108 -25 -2 -2 17 -7 41
-10 51 -8 146 9 322 55 164 43 548 131 558 127 5 -1 -54 -17 -130 -36 -76 -18
-247 -59 -380 -92 -133 -32 -251 -59 -263 -59 -11 0 -20 -5 -20 -11 0 -21 126
-2 335 50 303 75 686 163 690 159 2 -2 -67 -21 -153 -41 -443 -106 -739 -179
-757 -187 -14 -6 -4 -9 36 -9 36 -1 134 18 275 53 457 112 736 177 746 174 6
-2 -15 -10 -48 -17 -82 -18 -862 -209 -899 -220 -26 -8 -22 -9 29 -10 39 -1
120 14 240 44 311 77 733 175 747 174 15 -1 -199 -56 -416 -107 -71 -17 -224
-54 -340 -83 l-210 -51 -274 58 c-178 38 -267 60 -255 65 10 4 26 8 34 8 12 1
12 -1 2 -8 -9 -5 3 -10 33 -14 26 -4 50 -5 54 -3 3 2 119 30 256 61 138 31
322 73 410 94 148 36 205 47 194 37z m-2124 -18 c18 -8 25 -18 22 -29 -4 -15
-1 -16 19 -9 22 9 84 9 84 1 0 -2 -8 -10 -17 -18 -16 -13 -16 -14 9 -9 22 5
26 3 22 -9 -7 -17 17 -20 44 -6 9 5 26 5 37 1 18 -7 19 -8 3 -15 -24 -10 -23
-25 3 -25 11 0 18 -4 14 -10 -3 -5 -13 -6 -22 -3 -11 4 -14 3 -9 -5 4 -7 5
-12 2 -12 -2 0 -11 -3 -20 -6 -9 -3 -16 -1 -16 6 0 6 4 9 8 6 5 -3 9 1 9 9 0
8 -7 15 -14 15 -8 0 -12 -4 -8 -9 3 -5 -1 -16 -9 -24 -8 -8 -13 -17 -10 -20 3
-3 -3 -3 -14 0 -11 2 -23 -1 -27 -8 -5 -8 -4 -10 3 -5 7 4 12 3 12 -3 0 -11
31 -3 41 11 11 16 41 -30 34 -51 -3 -12 -11 -19 -16 -15 -13 8 -69 -15 -69
-28 0 -6 -12 -2 -27 8 -25 16 -27 16 -14 0 12 -14 12 -18 -5 -31 -18 -13 -18
-14 6 -9 22 5 23 4 7 -6 -9 -6 -26 -8 -37 -5 -11 4 -20 2 -20 -4 0 -6 7 -11
16 -11 14 0 14 -1 0 -16 -9 -8 -16 -23 -16 -32 0 -13 -3 -13 -15 4 -10 12 -14
14 -13 5 2 -8 -6 -16 -17 -18 -42 -8 -50 -13 -36 -22 8 -6 9 -11 3 -15 -6 -3
-13 -2 -17 4 -3 5 -11 10 -18 10 -6 0 -1 -7 11 -16 12 -8 26 -13 30 -10 5 3 9
-1 9 -9 0 -8 -5 -15 -10 -15 -5 0 -3 -7 4 -17 13 -15 12 -15 -10 -4 -15 8 -21
9 -17 2 4 -6 2 -11 -4 -11 -6 0 -8 -5 -4 -12 5 -7 3 -8 -5 -4 -7 5 -10 14 -7
22 11 28 -9 13 -22 -16 -15 -32 -19 -35 -41 -21 -13 8 -13 12 0 27 13 16 12
16 -17 1 -18 -9 -36 -12 -44 -7 -16 10 -42 2 -35 -11 3 -4 -3 -6 -13 -4 -29 5
-22 -23 7 -30 19 -5 22 -8 11 -15 -8 -5 -18 -6 -22 -4 -4 3 -8 1 -8 -4 0 -14
49 -21 54 -8 2 6 3 1 3 -11 -1 -12 -6 -19 -12 -15 -14 9 -38 9 -52 -1 -9 -6
-11 -2 -8 13 2 13 1 19 -3 16 -4 -4 -7 -11 -7 -15 0 -11 -32 -41 -44 -41 -17
0 -13 17 5 24 15 6 15 8 -2 28 -16 18 -16 20 -2 15 11 -4 15 -1 14 11 -2 9 -9
18 -17 20 -11 3 -12 2 -1 -6 11 -7 10 -10 -3 -16 -24 -9 -37 -7 -30 4 7 11
-15 13 -39 4 -9 -3 -13 -11 -9 -17 3 -6 1 -7 -5 -3 -7 4 -12 16 -12 27 0 12
-7 19 -17 18 -11 0 -13 -3 -5 -6 6 -2 12 -9 12 -14 0 -6 -6 -7 -12 -2 -7 4
-33 10 -58 13 l-45 5 53 24 c35 17 52 31 52 43 0 20 4 21 49 12 25 -5 29 -9
20 -20 -9 -11 -8 -14 4 -14 33 0 116 24 111 32 -3 4 6 12 20 18 29 10 34 20
12 20 -8 0 -22 -7 -31 -17 -10 -10 -19 -12 -23 -6 -4 5 -21 9 -38 8 -28 -3
-30 0 -26 22 4 23 3 24 -17 14 -16 -9 -21 -9 -21 1 0 20 12 32 45 47 l30 14
-29 8 c-16 4 -33 6 -38 3 -4 -3 -8 0 -8 6 0 7 13 9 38 4 47 -8 54 -13 45 -27
-4 -8 -1 -7 9 1 11 9 29 11 52 6 20 -3 36 -2 36 3 0 5 10 9 23 10 64 1 64 1
26 36 -19 18 -34 38 -32 44 2 6 -3 13 -11 16 -10 4 -13 1 -9 -9 4 -10 0 -12
-11 -8 -22 8 -21 44 2 45 14 0 14 2 -3 9 -11 5 -14 9 -7 9 7 1 10 6 7 11 -3 6
4 10 17 11 23 1 23 1 -2 9 -14 4 -23 9 -20 10 7 3 41 7 77 11 17 2 29 7 27 11
-3 4 3 8 13 8 15 0 15 2 3 9 -8 6 -18 7 -24 4 -5 -3 -6 -1 -2 5 4 7 1 12 -6
12 -9 0 -9 3 -2 8 6 4 13 15 17 25 5 14 13 17 41 11 32 -5 34 -4 29 15 -4 17
-1 21 20 21 14 0 38 -5 52 -12z m1892 6 c-3 -3 -12 -4 -19 -1 -8 3 -5 6 6 6
11 1 17 -2 13 -5z m380 0 c-3 -3 -12 -4 -19 -1 -8 3 -5 6 6 6 11 1 17 -2 13
-5z m190 0 c-3 -3 -12 -4 -19 -1 -8 3 -5 6 6 6 11 1 17 -2 13 -5z m-610 -10
c-3 -3 -12 -4 -19 -1 -8 3 -5 6 6 6 11 1 17 -2 13 -5z m380 0 c-3 -3 -12 -4
-19 -1 -8 3 -5 6 6 6 11 1 17 -2 13 -5z m-424 -11 c-7 -2 -19 -2 -25 0 -7 3
-2 5 12 5 14 0 19 -2 13 -5z m-46 -9 c-3 -3 -12 -4 -19 -1 -8 3 -5 6 6 6 11 1
17 -2 13 -5z m-44 -11 c-7 -2 -19 -2 -25 0 -7 3 -2 5 12 5 14 0 19 -2 13 -5z
m-46 -9 c-3 -3 -12 -4 -19 -1 -8 3 -5 6 6 6 11 1 17 -2 13 -5z m-44 -11 c-7
-2 -19 -2 -25 0 -7 3 -2 5 12 5 14 0 19 -2 13 -5z m-50 -10 c-7 -2 -19 -2 -25
0 -7 3 -2 5 12 5 14 0 19 -2 13 -5z m-46 -9 c-3 -3 -12 -4 -19 -1 -8 3 -5 6 6
6 11 1 17 -2 13 -5z m-40 -10 c-3 -3 -12 -4 -19 -1 -8 3 -5 6 6 6 11 1 17 -2
13 -5z m1163 -1 c0 -5 -66 -23 -148 -41 -81 -19 -237 -56 -347 -82 -110 -27
-238 -56 -284 -66 -75 -16 -81 -19 -56 -27 35 -12 184 18 680 138 143 34 173
40 163 30 -7 -7 -519 -132 -683 -166 -33 -7 -65 -16 -70 -20 -6 -5 -42 -2 -80
6 -39 8 -81 15 -95 16 -14 0 25 11 85 24 100 20 337 76 660 155 184 44 175 43
175 33z m-1265 -23 c-38 -11 -88 -21 -110 -24 -22 -3 1 5 50 18 50 13 99 24
110 24 11 0 -11 -8 -50 -18z m-2255 -10 c0 -5 -2 -10 -4 -10 -3 0 -8 5 -11 10
-3 6 -1 10 4 10 6 0 11 -4 11 -10z m2097 -26 c-3 -3 -12 -4 -19 -1 -8 3 -5 6
6 6 11 1 17 -2 13 -5z m-1537 -14 c18 -12 2 -12 -25 0 -13 6 -15 9 -5 9 8 0
22 -4 30 -9z m1413 3 c-7 -2 -19 -2 -25 0 -7 3 -2 5 12 5 14 0 19 -2 13 -5z
m-1406 -37 c-3 -8 -1 -17 6 -20 8 -3 8 -5 1 -5 -6 -1 -18 7 -25 16 -10 11 -10
14 -1 9 6 -4 12 -2 12 3 0 6 3 11 6 11 3 0 4 -6 1 -14z m2962 9 c-7 -6 -480
-121 -563 -136 -36 -7 -66 -16 -66 -21 0 -23 132 -4 361 52 133 34 250 59 258
57 9 -2 -4 -9 -29 -16 -80 -23 -458 -111 -477 -111 -15 0 -16 -2 -3 -10 21
-13 10 -12 -115 15 -74 15 -98 23 -73 24 49 1 223 39 468 100 178 45 251 59
239 46z m-3162 -41 c-3 -3 -12 -4 -19 -1 -8 3 -5 6 6 6 11 1 17 -2 13 -5z
m3158 -62 c-6 -5 -105 -32 -220 -61 -178 -45 -216 -51 -245 -43 l-35 10 50 1
c28 1 133 24 235 50 186 49 232 58 215 43z m-3175 -51 c0 -5 9 -12 20 -16 16
-5 17 -9 7 -20 -8 -8 -14 -9 -18 -3 -4 6 -11 8 -17 4 -5 -3 -12 1 -16 9 -3 8
-1 15 5 15 6 0 7 5 4 10 -3 6 -1 10 4 10 6 0 11 -4 11 -9z m1908 -17 l83 -17
-3 -80 -3 -80 -95 -23 c-52 -13 -96 -23 -97 -24 -2 0 -3 54 -3 120 0 139 -11
129 118 104z m-1854 -30 c9 -3 16 -12 16 -20 0 -8 7 -11 18 -8 14 5 15 4 2 -5
-21 -15 -30 -14 -30 4 0 8 -7 15 -15 15 -8 0 -15 5 -15 10 0 12 3 12 24 4z
m3543 0 c-3 -3 -12 -4 -19 -1 -8 3 -5 6 6 6 11 1 17 -2 13 -5z m-40 -10 c-3
-3 -12 -4 -19 -1 -8 3 -5 6 6 6 11 1 17 -2 13 -5z m40 -10 c-3 -3 -12 -4 -19
-1 -8 3 -5 6 6 6 11 1 17 -2 13 -5z m-1341 -44 c108 -22 198 -40 200 -40 8 0
4 -125 -5 -156 -10 -36 -24 -236 -15 -216 17 36 24 -1 24 -123 0 -108 -3 -135
-14 -135 -16 0 -41 -28 -33 -37 4 -3 13 -1 20 5 19 16 27 5 27 -35 0 -28 -3
-33 -24 -33 -14 0 -28 -4 -31 -10 -9 -14 -42 -12 -48 3 -3 6 -6 2 -6 -10 -1
-18 -11 -25 -52 -37 -28 -9 -67 -19 -87 -22 l-37 -7 30 -9 c37 -10 118 -7 126
5 4 5 7 -14 7 -42 1 -34 -3 -52 -11 -53 -6 -1 17 -4 53 -7 l65 -6 -3 -49 c-3
-67 -22 -86 -84 -86 -34 0 -48 4 -48 14 0 10 -42 14 -206 19 -113 3 -208 7
-211 10 -2 3 2 40 11 83 18 84 15 112 -3 39 -14 -57 -28 -58 -28 -2 -1 23 -13
82 -27 132 -14 49 -26 93 -26 97 0 4 15 14 33 22 l32 13 -47 8 -48 7 0 107 0
107 96 23 c52 13 98 20 102 16 4 -3 7 -59 7 -122 l0 -117 -47 -15 c-59 -18
-67 -45 -10 -35 20 3 42 7 47 8 6 0 10 -36 10 -92 0 -89 1 -92 23 -92 l22 0 0
455 c0 308 3 455 10 455 6 0 99 -18 206 -40z m-2587 9 c-16 -10 -23 -4 -14 10
3 6 11 8 17 5 6 -4 5 -9 -3 -15z m306 3 c-3 -3 -11 0 -18 7 -9 10 -8 11 6 5
10 -3 15 -9 12 -12z m-345 -11 c0 -5 -7 -12 -16 -15 -9 -3 -14 -13 -10 -21 3
-8 0 -17 -6 -21 -6 -4 -8 -3 -5 3 4 6 0 13 -8 17 -21 8 -19 19 8 32 29 15 37
16 37 5z m380 -23 c0 -6 -6 -5 -15 2 -8 7 -15 14 -15 16 0 2 7 1 15 -2 8 -4
15 -11 15 -16z m-366 -23 c14 -22 15 -25 1 -25 -13 0 -17 6 -14 26 0 4 -5 11
-13 15 -8 5 -9 9 -2 9 7 0 19 -11 28 -25z m2951 -26 c52 -11 57 -13 35 -20
-17 -6 -11 -6 18 -3 l42 6 0 -115 c0 -74 -4 -117 -11 -119 -6 -2 -46 1 -90 6
l-79 9 0 128 c0 98 3 127 13 124 6 -2 39 -9 72 -16z m-2994 -62 c-6 -8 -8 -17
-4 -21 4 -4 0 -4 -10 0 -14 5 -15 9 -6 20 6 8 16 14 21 14 7 0 6 -5 -1 -13z
m2389 -107 l0 -119 -52 -15 c-84 -24 -132 -36 -140 -36 -5 0 -8 56 -8 124 l0
123 93 21 c50 11 95 21 100 21 4 1 7 -53 7 -119z m-1587 85 c-7 -21 -13 -19
-13 6 0 11 4 18 10 14 5 -3 7 -12 3 -20z m2590 -1 c15 -5 17 -20 17 -125 0
-66 -4 -119 -9 -119 -14 0 -30 58 -35 130 -3 36 -6 76 -7 90 -3 40 -17 -137
-18 -230 -1 -55 4 -94 13 -112 13 -24 12 -27 -2 -31 -10 -3 -2 -5 16 -6 21 -1
32 -6 32 -16 0 -10 -48 -30 -157 -64 -140 -45 -304 -90 -325 -91 -5 0 -8 17
-8 39 l0 38 59 7 c32 4 103 20 158 35 55 16 119 32 141 36 45 7 58 18 45 38
-4 6 -8 15 -9 20 -1 4 -3 10 -4 15 -1 4 -1 17 0 30 1 12 -3 22 -9 22 -19 0
-12 18 8 22 19 3 19 5 -4 58 -21 50 -22 56 -7 62 10 4 12 7 4 7 -7 1 -10 6 -7
11 4 6 1 17 -5 25 -10 12 -10 15 0 15 10 0 10 3 1 14 -9 11 -9 15 1 19 8 4 5
8 -9 12 l-22 7 27 29 c27 29 50 32 115 13z m-2745 -45 c15 -1 5 -5 -23 -9 -27
-4 -52 -5 -55 -3 -8 7 25 23 38 18 8 -3 26 -6 40 -6z m89 -3 c-3 -7 0 -19 6
-26 7 -7 7 -10 2 -7 -6 3 -21 -1 -35 -9 l-25 -15 27 5 c23 5 25 3 21 -15 -5
-17 -11 -20 -35 -15 -19 4 -27 2 -23 -5 4 -6 19 -10 33 -9 50 4 53 1 30 -25
-16 -19 -28 -23 -49 -20 -15 3 -31 0 -35 -7 -4 -7 -3 -8 4 -4 7 4 12 2 12 -5
0 -9 3 -9 14 0 10 9 15 8 19 -3 4 -9 1 -18 -5 -22 -7 -4 -8 -3 -4 4 5 8 -6 10
-36 6 -58 -7 -70 -12 -63 -25 4 -6 -6 -4 -23 5 -27 14 -30 14 -28 -1 1 -22
-45 -25 -61 -4 -10 14 -12 13 -10 -7 1 -19 6 -23 25 -19 21 4 22 3 10 -10 -18
-18 -65 -26 -73 -13 -4 6 -3 10 2 9 21 -4 31 2 29 18 -2 9 -8 19 -15 21 -9 3
-9 8 1 20 12 15 11 16 -5 3 -12 -10 -14 -17 -7 -26 8 -9 4 -12 -15 -12 -14 0
-25 5 -25 11 0 8 -2 8 -8 0 -4 -7 -15 -8 -27 -3 -14 5 -15 8 -4 8 22 1 61 40
53 53 -5 8 -1 9 10 5 10 -4 31 -7 47 -7 17 0 28 -4 24 -10 -3 -6 1 -7 9 -4 9
3 13 10 10 15 -3 5 8 12 25 15 31 7 42 28 19 37 -7 3 0 6 15 6 16 1 26 5 23
10 -3 5 4 11 15 14 12 3 18 10 15 16 -4 5 2 15 13 21 11 5 22 6 25 1 6 -10 54
-6 64 5 4 4 0 5 -9 2 -9 -4 -22 -2 -30 3 -12 8 -12 10 1 8 29 -3 41 1 35 11
-3 6 -1 10 5 10 7 0 10 -6 7 -14z m-124 -53 c-7 -2 -19 -2 -25 0 -7 3 -2 5 12
5 14 0 19 -2 13 -5z m-190 -10 c-7 -2 -19 -2 -25 0 -7 3 -2 5 12 5 14 0 19 -2
13 -5z m5401 -405 c-5 -369 -14 -468 -42 -468 -10 0 -12 4 -5 13 5 6 8 18 7
25 -1 6 -2 22 -3 35 -1 20 -3 20 -12 5 -13 -24 -26 -23 -34 3 -5 14 -10 18
-14 10 -5 -8 -15 -4 -33 11 -24 22 -26 29 -31 155 -5 127 -23 203 -48 203 -5
0 -9 10 -9 22 0 12 -3 19 -6 15 -8 -8 -33 16 -27 25 2 4 -3 5 -11 2 -13 -5
-16 5 -18 62 -1 67 -1 68 -7 19 -6 -50 -6 -50 -41 -49 -19 0 -45 -6 -56 -13
-26 -17 -33 -5 -44 72 -5 33 -8 -5 -9 -112 -1 -138 -3 -163 -16 -163 -8 0 -56
9 -106 20 -51 12 -93 19 -94 18 -1 -2 -6 -44 -9 -95 l-7 -92 38 -10 c21 -6 73
-19 116 -28 78 -17 78 -17 77 -47 -1 -17 -2 -34 -1 -38 1 -4 33 4 73 18 97 33
100 32 92 -13 -3 -21 -9 -41 -13 -45 -3 -4 -42 -17 -86 -30 -44 -12 -83 -27
-87 -32 -3 -5 -15 -11 -25 -12 -10 -2 -50 -16 -88 -31 -68 -27 -70 -30 -76
-68 -5 -29 -7 -18 -8 43 -1 106 -15 100 -19 -9 -2 -45 -7 -90 -12 -98 -8 -14
-3 799 5 825 2 6 56 25 122 43 65 18 217 64 338 101 121 38 223 69 227 69 4 1
5 -162 2 -361z m-5774 338 c0 -3 -4 -8 -10 -11 -5 -3 -10 -1 -10 4 0 6 5 11
10 11 6 0 10 -2 10 -4z m355 -15 c10 -18 -17 -23 -33 -7 -15 15 -15 16 5 16
12 0 24 -4 28 -9z m2559 -33 c-3 -4 9 -8 27 -8 l31 0 -5 -61 c-5 -65 -31 -104
-61 -93 -9 3 -16 1 -16 -6 0 -6 3 -9 8 -7 4 3 16 1 27 -4 19 -7 18 -8 -4 -8
-16 -1 -21 -6 -18 -15 6 -14 -21 -32 -31 -21 -4 3 -8 62 -10 130 l-4 124 30
-11 c17 -7 29 -16 26 -20z m-2919 12 c3 -6 -1 -7 -9 -4 -9 3 -16 1 -16 -6 0
-6 -5 -8 -11 -4 -8 4 -7 9 2 15 18 11 26 11 34 -1z m4430 -35 c163 -30 175
-35 175 -61 0 -19 -5 -24 -26 -24 -25 0 -26 -2 -22 -52 2 -29 6 -57 7 -63 2
-5 3 -69 2 -142 l-1 -132 -37 -7 c-30 -6 -33 -9 -18 -14 13 -5 15 -9 7 -14 -7
-4 -10 -12 -7 -17 4 -5 0 -16 -9 -24 -18 -18 -30 -20 -20 -2 6 8 3 8 -9 -1
-15 -13 -16 -7 -19 65 -3 71 -5 78 -23 75 -20 -3 -20 -2 -1 13 11 8 24 15 30
15 5 0 7 2 4 5 -3 3 -17 1 -32 -4 -22 -9 -26 -8 -26 9 0 18 -2 18 -40 5 -40
-14 -50 -9 -28 13 9 9 9 12 -2 12 -9 0 -8 5 5 20 17 19 17 20 -1 21 -16 1 -16
2 -2 6 11 3 15 11 12 21 -5 14 -4 14 4 3 9 -12 15 -12 34 -3 13 7 15 10 6 8
-10 -3 -18 -1 -18 4 0 6 7 10 15 10 8 0 15 4 15 10 0 6 -9 6 -26 0 -51 -20
-51 -19 -53 125 -2 105 1 135 11 135 7 0 49 -7 93 -15z m-4087 -21 c14 -4 21
-12 18 -20 -3 -7 0 -15 7 -18 7 -2 4 -5 -7 -5 -12 -1 -16 4 -12 15 5 12 1 14
-15 9 -14 -5 -19 -3 -15 3 3 6 0 13 -6 15 -19 8 3 8 30 1z m-297 -72 c1 -28 0
-55 -4 -59 -4 -3 -7 22 -7 57 0 75 8 77 11 2z m399 23 c0 -1 -12 -2 -26 -2
-17 0 -22 2 -13 7 10 7 39 3 39 -5z m4386 -9 c66 -13 136 -27 157 -30 l37 -7
0 -283 c0 -263 -1 -283 -17 -281 -31 3 -63 16 -63 26 0 5 -10 9 -22 7 -13 -1
-57 1 -98 6 -66 8 -71 10 -45 17 17 5 76 9 133 10 l102 1 -1 86 c-1 48 -4 75
-6 60 -3 -18 -9 -25 -19 -21 -9 3 -14 -1 -14 -12 0 -9 4 -14 9 -10 17 10 21
-13 5 -29 -14 -15 -14 -16 0 -16 25 0 19 -20 -6 -21 -13 0 -17 -3 -10 -6 13
-5 7 -23 -9 -23 -5 0 -9 30 -9 68 0 91 -8 115 -32 109 -18 -5 -18 -4 -4 11 14
16 9 45 -8 43 -20 -3 -26 0 -21 9 4 6 -17 10 -55 10 -46 0 -59 -3 -54 -12 5
-8 0 -7 -11 2 -10 8 -16 10 -12 4 4 -7 0 -14 -8 -18 -8 -3 -15 -1 -15 5 0 6
-5 7 -12 3 -7 -4 -8 -3 -4 5 4 6 11 9 15 7 4 -3 13 4 20 16 7 11 8 18 3 14 -5
-3 -18 1 -28 8 -18 13 -17 15 16 24 19 6 30 11 24 11 -6 1 -9 12 -7 25 4 21 8
23 38 16 19 -4 36 -6 38 -4 5 6 -8 103 -16 110 -14 14 -35 -6 -41 -40 -6 -32
-26 -52 -26 -26 0 6 -6 10 -14 10 -12 0 -12 7 -5 35 11 41 6 55 -22 55 -14 0
-19 7 -19 25 0 14 4 25 9 25 4 0 62 -11 127 -24z m-4421 -16 c3 -5 -1 -10 -9
-10 -9 0 -16 5 -16 10 0 6 4 10 9 10 6 0 13 -4 16 -10z m75 -15 c-7 -8 -17
-15 -23 -15 -6 0 -2 7 9 15 25 19 30 19 14 0z m-39 -40 c5 4 6 -1 2 -10 -5
-13 -7 -14 -14 -3 -5 7 -8 18 -8 23 0 6 3 4 6 -3 2 -6 9 -10 14 -7z m-28 -59
c-17 -22 -33 -26 -33 -7 0 6 33 27 48 30 2 1 -5 -10 -15 -23z m817 -17 c-58
-20 -148 -36 -161 -28 -10 6 -5 9 16 9 17 1 55 7 85 15 62 15 98 18 60 4z
m-1186 -42 c2 -15 0 -27 -5 -27 -5 0 -9 14 -9 32 0 37 7 34 14 -5z m3306 23
c0 -5 -2 -10 -4 -10 -3 0 -8 5 -11 10 -3 6 -1 10 4 10 6 0 11 -4 11 -10z
m-1230 -25 c0 -8 -6 -12 -14 -9 -8 3 -17 1 -21 -5 -3 -6 -11 -11 -17 -11 -6 0
-3 9 7 20 21 23 45 26 45 5z m1074 -30 c-4 -8 -10 -15 -15 -15 -5 0 -8 -3 -7
-7 1 -5 -2 -24 -6 -43 l-9 -35 -7 30 c-14 56 -11 73 13 78 12 2 25 5 29 6 4 0
5 -6 2 -14z m-141 -22 c-7 -2 -13 -10 -13 -18 0 -7 -6 -18 -14 -24 -11 -9 -15
-8 -20 5 -10 26 -7 32 17 37 31 6 44 6 30 0z m1644 1 c-3 -3 -12 -4 -19 -1 -8
3 -5 6 6 6 11 1 17 -2 13 -5z m-4647 -66 c0 -5 -4 -8 -10 -8 -5 0 -10 10 -10
23 0 18 2 19 10 7 5 -8 10 -18 10 -22z m3310 -57 c0 -48 -26 -63 -51 -30 -13
17 -22 20 -43 15 -18 -4 -32 -2 -42 9 -18 18 -13 20 56 34 79 15 80 15 80 -28z
m-3874 -138 c4 -35 9 -43 26 -43 11 0 27 8 35 18 11 13 11 10 -1 -14 -8 -17
-13 -34 -10 -37 9 -8 -69 11 -190 47 -61 18 -135 39 -163 46 -50 11 -53 13
-47 38 4 15 7 28 8 28 1 1 75 19 166 41 l165 40 2 -61 c2 -34 5 -80 9 -103z
m332 90 c-21 -2 -55 -2 -75 0 -21 2 -4 4 37 4 41 0 58 -2 38 -4z m135 0 c-7
-2 -14 -17 -14 -31 -1 -19 -3 -22 -6 -8 -4 17 -14 18 -113 14 -60 -2 -106 0
-104 4 3 5 36 8 75 8 39 0 69 4 69 10 0 6 24 10 53 9 28 0 46 -3 40 -6z m32
-3 c-3 -5 0 -10 9 -10 8 0 16 6 19 13 3 6 4 2 4 -10 -1 -15 -6 -20 -20 -17
-13 2 -17 -1 -13 -11 4 -11 -1 -15 -17 -14 -12 0 -16 3 -9 6 6 2 12 9 12 14 0
6 -4 7 -10 4 -14 -9 -12 3 3 20 14 16 31 20 22 5z m791 -21 c22 -25 24 -29 8
-21 -12 6 -25 8 -29 4 -3 -4 -6 -2 -5 3 5 21 0 36 -10 30 -6 -4 -7 -11 -4 -17
4 -6 8 -22 10 -35 2 -19 -1 -23 -16 -18 -21 7 -73 -22 -64 -36 13 -22 -16 -6
-37 20 -20 26 -26 28 -52 19 -21 -8 -25 -13 -15 -19 10 -7 9 -9 -4 -9 -10 0
-18 5 -18 11 0 5 -5 7 -10 4 -6 -4 -8 -10 -5 -15 3 -4 -11 -3 -30 3 -26 8 -39
7 -47 -1 -8 -8 -5 -10 13 -6 21 4 22 3 4 -5 -26 -11 -42 3 -26 23 8 10 24 13
46 11 19 -3 37 0 40 5 3 6 -1 11 -9 11 -29 3 -34 4 -41 11 -4 3 6 4 22 2 71
-12 159 -7 176 11 12 11 17 12 20 2 3 -7 6 -4 6 6 1 10 5 16 10 13 5 -3 14 1
21 9 16 19 11 20 46 -16z m3768 4 c-6 -32 -11 -39 -21 -30 -6 7 12 57 21 57 3
0 2 -12 0 -27z m-4279 7 c3 5 11 10 17 10 6 0 3 -8 -8 -19 -10 -10 -30 -17
-44 -16 -14 2 -30 -1 -37 -7 -7 -5 -18 -8 -25 -5 -8 3 -5 6 6 6 15 1 16 4 6
16 -10 12 -9 15 7 15 10 0 25 -6 32 -12 11 -11 13 -10 8 5 -6 15 -3 16 13 7
12 -7 21 -7 25 0z m-137 -32 c2 -9 -6 -18 -18 -21 -14 -4 -20 0 -20 12 0 33
32 41 38 9z m248 7 c19 -18 1 -20 -26 -2 -16 9 -22 9 -28 0 -8 -13 -37 -12
-49 2 -4 4 -3 6 2 3 6 -3 19 -2 30 3 31 12 55 10 71 -6z m-639 -11 c-3 -3 -12
-4 -19 -1 -8 3 -5 6 6 6 11 1 17 -2 13 -5z m56 -11 c-7 -2 -19 -2 -25 0 -7 3
-2 5 12 5 14 0 19 -2 13 -5z m642 -3 c3 -5 2 -10 -4 -10 -5 0 -13 5 -16 10 -3
6 -2 10 4 10 5 0 13 -4 16 -10z m2916 3 c0 -5 2 -23 5 -42 3 -21 -1 -38 -8
-43 -10 -6 -10 -8 0 -8 9 0 12 -27 12 -100 0 -97 -1 -100 -22 -100 -13 1 -124
26 -248 58 l-225 57 -3 40 c-1 22 2 46 7 54 12 19 54 4 47 -16 -6 -14 7 -15
99 -8 102 7 105 6 105 -14 0 -12 5 -21 10 -21 6 0 10 11 10 25 0 17 6 25 18
26 16 1 16 2 0 6 -10 2 -18 11 -18 19 0 10 13 14 43 15 23 1 56 2 72 3 26 1
30 -3 33 -26 2 -20 9 -28 23 -28 15 0 18 4 11 18 -8 16 -8 26 -4 75 2 16 31
25 33 10z m-3323 -9 c17 -5 21 -11 16 -23 -3 -9 -9 -27 -11 -41 -4 -20 -2 -22
6 -10 19 26 12 -7 -8 -42 -11 -18 -23 -50 -26 -70 l-7 -38 -184 0 c-101 0
-187 -1 -191 -2 -24 -10 4 110 33 139 30 30 32 2 5 -74 -10 -29 -15 -53 -11
-53 4 0 16 29 26 64 l18 64 71 1 c81 1 217 -18 226 -32 4 -5 10 8 13 28 4 20
10 43 13 51 4 11 -5 14 -38 16 l-44 1 45 6 c45 5 45 5 -20 11 l-65 7 55 1 c30
1 65 -1 78 -4z m947 -4 c-3 -5 -2 -10 4 -10 5 0 13 5 16 10 10 16 21 11 21
-10 0 -11 -6 -22 -14 -25 -7 -2 -11 -1 -8 3 2 4 -4 8 -14 8 -14 0 -16 -3 -8
-13 8 -10 7 -12 -5 -8 -8 4 -18 2 -22 -4 -3 -6 -19 -11 -36 -11 -16 0 -29 -5
-29 -11 0 -5 6 -7 13 -3 8 5 8 2 -2 -9 -14 -18 -26 -23 -16 -8 3 6 -4 9 -15 8
-11 -1 -20 -7 -20 -14 0 -17 -17 -25 -39 -18 -16 5 -17 9 -7 30 6 14 14 25 18
25 4 0 13 7 22 15 8 8 30 16 49 17 20 2 33 5 31 7 -3 3 10 10 28 17 18 6 34
12 36 13 2 0 0 -3 -3 -9z m-1745 -102 c0 -70 -2 -78 -19 -78 -11 0 -21 -4 -23
-9 -2 -5 -13 -5 -25 0 -22 8 -23 14 -23 97 l0 89 45 -10 45 -10 0 -79z m593
95 c-24 -2 -62 -2 -85 0 -24 2 -5 4 42 4 47 0 66 -2 43 -4z m-26 -20 c-20 -2
-52 -2 -70 0 -17 2 0 4 38 4 39 0 53 -2 32 -4z m-484 -19 c25 -6 27 -10 27
-60 0 -51 -1 -54 -26 -54 -14 0 -23 -4 -19 -10 3 -5 1 -10 -4 -10 -6 0 -11 5
-11 12 0 9 -3 9 -12 0 -23 -23 -28 -12 -28 64 0 74 1 76 23 70 12 -4 34 -9 50
-12z m987 1 c7 -9 8 -15 2 -15 -5 0 -12 7 -16 15 -3 8 -4 15 -2 15 2 0 9 -7
16 -15z m390 -13 c0 -13 2 -14 9 -4 6 11 10 10 19 0 8 -11 7 -14 -6 -15 -9 0
-28 -3 -41 -7 -23 -5 -23 -5 -6 14 9 10 14 24 9 31 -4 8 -3 10 4 5 7 -4 12
-15 12 -24z m4157 22 c-3 -3 -12 -4 -19 -1 -8 3 -5 6 6 6 11 1 17 -2 13 -5z
m-5417 -46 c36 -12 58 -23 50 -26 -8 -2 -21 -11 -27 -20 -8 -10 -13 -11 -13
-4 0 10 -5 10 -20 2 -11 -6 -20 -8 -20 -6 0 3 -11 1 -25 -4 -24 -9 -25 -8 -25
35 0 25 4 45 8 45 4 0 37 -10 72 -22z m2637 16 c-3 -3 -12 -4 -19 -1 -8 3 -5
6 6 6 11 1 17 -2 13 -5z m40 -10 c-3 -3 -12 -4 -19 -1 -8 3 -5 6 6 6 11 1 17
-2 13 -5z m-1574 -10 c7 -7 -35 -44 -50 -44 -4 0 -1 5 7 10 8 5 16 14 16 20 1
5 2 12 3 15 2 7 16 6 24 -1z m1620 -1 c-7 -2 -19 -2 -25 0 -7 3 -2 5 12 5 14
0 19 -2 13 -5z m2660 -4 c21 0 21 -1 2 -9 -11 -5 -31 -9 -45 -9 -14 1 -19 3
-12 6 6 2 9 10 5 16 -4 7 0 8 11 4 10 -4 27 -7 39 -8z m-4249 -14 c-10 -8 -23
-15 -28 -15 -6 0 -1 7 10 15 10 8 23 15 28 15 6 0 1 -7 -10 -15z m472 -5 c12
0 12 -3 2 -13 -15 -16 -48 -10 -48 8 0 15 23 26 28 14 2 -5 10 -9 18 -9z
m-586 2 c0 -5 -7 -9 -15 -9 -8 0 -12 4 -9 9 3 4 9 8 15 8 5 0 9 -4 9 -8z m215
-10 c-3 -3 -11 0 -18 7 -9 10 -8 11 6 5 10 -3 15 -9 12 -12z m1845 -58 c168
-41 357 -86 420 -100 63 -13 185 -42 270 -64 295 -77 1284 -320 1304 -321 20
-2 20 -2 -1 -6 -21 -4 -493 109 -1678 402 -509 126 -645 162 -625 164 3 1 142
-33 310 -75z m-1846 38 c2 -4 -5 -9 -17 -9 -17 -2 -19 0 -7 7 18 12 18 12 24
2z m35 -28 c-13 -16 -45 -19 -53 -5 -3 4 6 6 19 3 21 -3 24 -1 20 18 -4 18 -2
20 11 10 11 -10 12 -16 3 -26z m44 22 c3 4 5 -3 4 -14 -1 -12 -6 -18 -14 -15
-8 3 -11 8 -9 11 3 3 0 12 -7 21 -10 14 -10 14 4 4 9 -7 19 -10 22 -7z m48 -1
c5 4 6 -1 3 -9 -5 -12 -9 -13 -19 -3 -7 7 -10 16 -7 22 3 5 7 4 10 -3 2 -7 8
-10 13 -7z m44 5 c3 -6 -1 -7 -9 -4 -18 7 -21 14 -7 14 6 0 13 -4 16 -10z m72
-6 c-3 -3 -12 -4 -19 -1 -8 3 -5 6 6 6 11 1 17 -2 13 -5z m4797 -18 c-6 -15
-24 -23 -24 -11 0 8 24 34 28 30 1 -1 0 -10 -4 -19z m-691 -160 l-2 -170 -37
-13 c-20 -7 -40 -10 -45 -7 -5 3 -9 1 -9 -4 0 -5 -41 0 -90 11 -60 14 -86 23
-78 29 8 6 0 7 -21 3 -26 -6 -32 -4 -26 6 6 9 2 11 -13 7 -14 -4 -19 -2 -15 8
9 24 86 52 155 57 36 3 70 7 75 10 9 5 7 151 -2 175 -2 6 -12 11 -22 11 -17
-1 -17 -2 0 -6 19 -5 24 -57 7 -68 -6 -3 -30 -3 -55 1 -34 5 -45 11 -45 24 0
34 12 50 39 51 21 0 22 2 8 8 -50 19 0 35 118 37 l60 1 -2 -171z m-5545 129
c-3 -3 -9 2 -12 12 -6 14 -5 15 5 6 7 -7 10 -15 7 -18z m1342 11 c0 -2 -7 -7
-16 -10 -8 -3 -12 -2 -9 4 6 10 25 14 25 6z m4962 -47 c5 -3 -15 -13 -43 -22
-29 -10 -54 -15 -57 -13 -2 3 14 10 37 16 35 9 41 15 42 38 1 21 2 23 6 7 3
-11 9 -23 15 -26z m-86 -5 c-9 -8 -16 -12 -16 -8 0 3 -6 1 -13 -5 -8 -6 -17
-8 -20 -4 -12 11 -8 23 8 23 8 0 15 4 15 9 0 12 34 20 38 9 2 -4 -4 -15 -12
-24z m-6146 11 c0 -8 -7 -15 -15 -15 -8 0 -15 5 -15 11 0 5 5 7 10 4 6 -3 10
-1 10 4 0 6 2 11 5 11 3 0 5 -7 5 -15z m-40 -12 c0 -15 -2 -16 -10 -3 -8 12
-10 12 -10 1 0 -8 -3 -12 -6 -8 -8 7 4 27 17 27 5 0 9 -8 9 -17z m-40 -3 c0
-5 -7 -7 -15 -4 -8 4 -15 8 -15 10 0 2 7 4 15 4 8 0 15 -4 15 -10z m6298 -142
c-2 -125 -5 -110 -10 40 -2 45 0 82 5 82 4 0 6 -55 5 -122z m-108 103 c-8 -5
-26 -11 -40 -15 -21 -5 -20 -3 5 9 32 15 60 20 35 6z m-203 -37 c3 -18 2 -18
-5 -1 -7 17 -9 17 -26 -2 -24 -26 -36 -27 -36 -2 0 12 8 21 23 24 33 6 42 2
44 -19z m-2397 -143 l0 -129 -77 17 c-151 34 -285 75 -266 83 13 5 8 7 -17 9
-19 1 -43 1 -53 1 -11 -1 -15 2 -11 9 4 7 22 9 48 6 30 -5 36 -4 21 4 -15 7
-10 8 20 4 27 -3 33 -2 20 4 -16 7 -12 10 23 16 24 4 41 9 38 12 -3 3 -39 -2
-81 -12 -42 -9 -79 -15 -81 -12 -3 2 35 12 83 22 48 9 109 26 135 36 26 10 59
20 75 20 26 2 25 2 -7 9 -32 7 -17 15 18 11 6 -1 12 3 12 9 0 5 22 10 50 10
l50 0 0 -129z m-836 103 c22 -8 20 -24 -2 -24 -10 0 -42 -6 -72 -14 -109 -27
-116 -28 -104 -16 8 8 111 46 161 60 1 0 8 -3 17 -6z m1006 -19 c67 -17 111
-33 123 -46 10 -11 17 -22 16 -23 -2 -2 -13 -8 -24 -14 -19 -11 -19 -11 3 -12
30 0 28 -16 -5 -29 -21 -8 -22 -10 -5 -7 34 6 26 -10 -10 -22 l-33 -11 40 5
40 4 -40 -21 c-32 -16 -34 -19 -12 -14 49 10 29 -12 -25 -28 -29 -8 -46 -16
-38 -16 8 -1 30 3 48 8 20 6 30 6 27 0 -4 -5 -14 -9 -23 -10 -11 0 -12 -3 -4
-6 23 -9 12 -18 -23 -19 -24 0 -31 2 -23 9 9 6 5 7 -11 3 -30 -6 -153 22 -163
37 -8 12 -8 216 -1 230 7 12 32 8 143 -18z m2110 9 c0 -8 -5 -12 -10 -9 -6 4
-8 11 -5 16 9 14 15 11 15 -7z m-76 -29 c2 -6 -8 -10 -23 -10 -15 0 -25 -5
-24 -12 2 -7 -4 -10 -12 -7 -24 10 0 42 30 40 13 0 27 -6 29 -11z m-119 -43
c-8 -2 -13 -8 -10 -13 4 -5 1 -9 -4 -9 -6 0 -11 11 -11 25 0 23 2 24 20 13 17
-11 18 -14 5 -16z m-51 3 c3 -8 1 -15 -4 -15 -6 0 -10 7 -10 15 0 8 2 15 4 15
2 0 6 -7 10 -15z m148 -40 c-6 -34 -22 -42 -22 -11 0 13 6 27 13 29 6 3 13 6
13 6 1 1 -1 -10 -4 -24z m-92 -5 c-8 -5 -19 -10 -25 -10 -5 0 -3 5 5 10 8 5
20 10 25 10 6 0 3 -5 -5 -10z m60 2 c0 -12 -67 -42 -74 -34 -4 3 8 14 26 24
37 19 48 22 48 10z m460 -9 c0 -25 -12 -39 -37 -47 -20 -6 -23 -4 -23 22 0 35
6 42 37 42 15 0 23 -6 23 -17z m60 14 c0 -2 -9 -14 -20 -27 -19 -22 -20 -22
-20 -3 0 11 3 23 7 26 7 7 33 10 33 4z m-4107 -44 c-7 -2 -19 -2 -25 0 -7 3
-2 5 12 5 14 0 19 -2 13 -5z m3625 -132 c3 -9 0 -12 -10 -8 -9 3 -21 0 -27 -6
-8 -8 -11 -5 -11 12 0 17 5 22 22 19 12 -2 24 -9 26 -17z m-3004 -33 c14 -53
0 -572 -15 -563 -4 3 -10 -3 -12 -12 -3 -10 -5 11 -6 46 -1 57 -3 62 -17 50
-14 -11 -18 -10 -30 6 -8 10 -14 35 -15 54 0 20 -2 43 -4 51 -28 137 -29 308
-2 351 24 39 92 50 101 17z m-263 -75 c3 -47 -4 -88 -21 -125 -11 -24 -20 -35
-23 -26 -3 7 -6 -1 -6 -18 -1 -24 -5 -31 -18 -30 -10 0 -21 10 -25 21 -5 17
-6 16 -7 -7 -1 -29 -16 -46 -24 -26 -10 27 -30 -12 -30 -56 0 -61 -14 -49 -22
19 -4 31 -11 58 -16 61 -5 3 -9 1 -9 -4 0 -6 -7 -12 -15 -16 -13 -4 -15 8 -15
78 l0 83 103 31 c121 37 127 37 128 15z m99 -94 c0 -27 -4 -49 -9 -49 -5 0 -8
25 -8 55 0 30 3 52 8 49 5 -3 9 -27 9 -55z m-393 -141 c-8 -193 -11 -212 -38
-197 -11 5 -23 8 -28 5 -9 -6 -20 71 -22 154 -1 41 -3 49 -8 30 -5 -14 -7 -38
-5 -53 3 -22 0 -28 -11 -23 -11 4 -15 -2 -15 -24 0 -21 -4 -28 -14 -24 -10 4
-13 0 -10 -13 4 -14 0 -19 -15 -19 -15 0 -17 3 -9 13 8 10 7 12 -6 7 -14 -5
-16 3 -16 62 0 80 -11 81 -12 0 -1 -45 -5 -56 -17 -54 -26 5 -41 30 -29 51 8
16 7 18 -11 12 -12 -3 -21 -2 -21 3 0 6 5 12 11 14 16 5 22 75 10 109 l-10 28
117 39 c64 22 128 40 141 41 l24 1 -6 -162z m1673 24 c0 -5 -21 -16 -47 -25
-27 -9 -34 -14 -18 -11 17 3 44 12 61 20 26 12 40 13 75 4 86 -22 84 -20 53
-36 -24 -13 -33 -13 -73 1 -24 8 -46 15 -48 15 -2 0 -3 -18 -3 -40 0 -45 -14
-55 -85 -61 -33 -3 -41 0 -51 19 -19 39 -27 38 -22 -3 l5 -40 -57 -2 c-55 -3
-58 -2 -63 22 -5 30 -10 26 76 55 38 12 67 24 64 26 -2 2 -49 -12 -105 -30
-76 -26 -102 -31 -102 -21 0 8 29 23 68 36 37 13 103 35 147 50 82 28 125 35
125 21z m222 -51 c23 -9 24 -11 17 -78 -5 -37 -9 -75 -9 -83 -1 -13 -2 -13 -7
0 -4 8 -12 20 -20 25 -17 13 -31 145 -15 145 6 0 21 -4 34 -9z m-516 -146
c-17 -17 -31 -5 -41 36 -5 20 -2 27 17 36 21 9 24 7 30 -24 6 -24 4 -39 -6
-48z m446 1 c4 -6 -4 -17 -17 -24 -58 -30 -465 -174 -466 -164 0 4 -2 19 -4
33 -5 40 8 52 54 47 26 -2 37 0 31 6 -6 6 -10 13 -10 17 0 3 65 24 145 45 116
31 144 42 140 55 -4 13 3 14 57 5 35 -6 66 -15 70 -20z m1238 -101 c0 -83 0
-85 -24 -85 -20 0 -25 6 -28 32 -3 30 -6 32 -66 46 -37 8 -62 18 -59 25 3 9
142 63 170 66 4 1 7 -37 7 -84z m-3341 -46 c75 -22 171 -52 214 -65 l77 -26 0
-37 0 -37 -217 -71 c-186 -61 -219 -69 -227 -56 -4 8 -10 90 -13 180 -5 154
-4 165 12 159 10 -3 79 -25 154 -47z m2744 -19 c-4 -4 -25 -10 -45 -13 -35 -5
-38 -4 -38 19 0 14 4 22 10 19 6 -3 10 -1 10 6 0 6 8 9 20 6 11 -3 25 2 32 11
11 13 13 12 16 -13 2 -15 0 -31 -5 -35z m392 1 c112 -27 153 -40 160 -51 4 -6
15 -10 26 -10 16 0 19 -7 19 -50 l0 -49 -52 2 -53 2 -6 -45 -6 -45 -1 43 c-2
54 -18 87 -35 73 -7 -5 -32 -7 -56 -4 -33 5 -45 11 -52 29 -4 13 -15 24 -24
24 -11 0 -15 12 -15 50 0 28 3 50 8 50 4 0 43 -9 87 -19z m-791 -22 c-5 -8 1
-10 18 -6 14 4 47 0 74 -7 83 -24 132 -27 167 -13 18 8 55 17 82 20 43 5 46 5
17 -4 -18 -5 -30 -14 -27 -19 3 -4 -43 -27 -101 -50 -84 -33 -114 -40 -142
-35 -44 8 -34 19 49 51 l64 24 -48 -5 c-35 -4 -46 -2 -41 6 4 8 3 9 -5 5 -7
-5 -42 0 -78 10 -49 13 -61 20 -47 25 26 10 26 10 18 -2z m-2639 -119 c17 -33
19 -44 6 -36 -10 6 -33 66 -26 66 3 0 11 -13 20 -30z m5715 9 c0 -5 -4 -9 -10
-9 -5 0 -10 7 -10 16 0 8 5 12 10 9 6 -3 10 -10 10 -16z m-6851 -13 c-2 -2
-19 -7 -38 -11 -26 -5 -32 -4 -29 6 3 8 15 15 27 15 12 1 25 4 29 8 3 4 8 2
10 -4 2 -6 2 -13 1 -14z m1118 -41 c0 -8 -4 -12 -9 -9 -5 3 -6 10 -3 15 9 13
12 11 12 -6z m3630 -2 c1 -10 4 -29 9 -42 5 -18 4 -23 -7 -19 -15 5 -26 78
-12 78 5 0 9 -8 10 -17z m-3516 -20 c13 -16 12 -17 -3 -4 -17 13 -22 21 -14
21 2 0 10 -8 17 -17z m1064 7 c3 -5 -6 -17 -20 -26 -15 -10 -31 -35 -39 -63
-8 -25 -15 -41 -15 -36 -2 12 -21 -16 -21 -30 0 -5 5 -3 10 5 9 13 10 13 10 0
0 -31 -18 -40 -91 -50 -41 -5 -77 -10 -81 -10 -5 0 -8 8 -8 17 0 14 -3 13 -23
-5 -28 -26 -45 -29 -26 -4 7 9 0 5 -16 -9 -57 -50 -167 -69 -286 -49 -97 16
-134 34 -154 75 -33 71 0 104 146 141 86 22 269 15 354 -14 33 -11 53 -20 44
-21 -9 -1 -19 -7 -22 -15 -8 -19 41 -28 88 -15 20 6 39 8 41 6 3 -3 -28 -14
-68 -26 -40 -11 -56 -19 -36 -16 75 11 138 35 138 53 0 12 -3 13 -8 5 -5 -8
-13 -9 -22 -3 -11 7 -8 10 13 15 15 4 27 13 27 21 0 44 47 84 65 54z m-2292
-30 c4 -15 0 -20 -16 -20 -18 0 -19 2 -7 10 8 5 11 10 7 10 -5 0 -5 5 -2 10 9
14 12 13 18 -10z m-123 -5 c25 -8 218 -71 430 -141 212 -69 450 -147 530 -174
278 -93 711 -230 725 -230 8 0 16 -4 19 -9 9 -13 -14 -7 -304 86 -448 143
-1452 473 -1459 479 -9 8 15 4 59 -11z m3470 -5 c-8 -5 -19 -10 -25 -10 -5 0
-3 5 5 10 8 5 20 10 25 10 6 0 3 -5 -5 -10z m-903 -6 c-3 -3 -12 -4 -19 -1 -8
3 -5 6 6 6 11 1 17 -2 13 -5z m-82 -24 c-27 -10 -57 -18 -65 -18 -8 0 8 8 35
18 28 10 57 18 65 18 8 0 -7 -8 -35 -18z m898 2 c-28 -10 -54 -20 -58 -24 -7
-7 73 10 87 18 4 3 8 1 8 -4 0 -6 -10 -12 -22 -15 -13 -4 -32 -13 -43 -22 -18
-14 -17 -14 15 -1 19 7 46 17 60 20 l25 7 -25 -15 c-30 -18 -21 -21 14 -5 14
7 24 15 22 18 -2 3 12 7 32 8 26 1 32 -1 22 -7 -21 -13 -11 -12 49 6 29 8 55
13 58 10 3 -3 -10 -10 -28 -15 -33 -10 -33 -11 11 -6 25 2 59 7 75 9 22 4 20
2 -7 -6 -21 -6 -38 -15 -38 -20 0 -5 -4 -6 -10 -3 -5 3 -10 2 -10 -4 0 -5 -9
-13 -21 -16 -11 -4 -19 -9 -16 -11 2 -2 23 3 47 11 49 17 50 18 50 7 0 -4 -16
-14 -36 -21 -19 -7 -33 -15 -31 -18 3 -2 14 0 24 5 30 16 124 42 118 32 -3 -5
-28 -16 -56 -25 -79 -27 -53 -26 40 1 46 13 91 23 100 23 11 -1 10 -3 -4 -6
-11 -3 -31 -10 -45 -16 -14 -6 -27 -11 -30 -12 -19 -6 -91 -44 -75 -40 11 4
40 11 65 16 25 6 79 21 121 33 52 16 107 24 170 26 132 3 150 3 184 1 27 -1
28 -3 13 -14 -15 -12 -15 -14 1 -24 14 -9 25 -8 45 2 22 12 26 12 26 0 0 -20
40 -45 71 -45 15 0 32 -6 38 -14 9 -11 6 -18 -16 -35 -21 -15 -24 -20 -11 -21
9 0 19 4 23 10 3 5 13 6 22 3 12 -5 15 -2 10 10 -5 13 -3 15 11 8 9 -5 73 -24
142 -41 128 -33 197 -57 188 -65 -9 -9 -188 -85 -247 -105 -31 -10 -69 -20
-85 -22 -26 -3 -30 0 -31 26 -2 25 0 27 10 13 14 -19 55 -23 55 -6 0 8 4 8 13
0 10 -8 14 -7 14 4 0 11 -10 14 -39 12 -22 -2 -41 0 -44 5 -3 4 -14 8 -26 8
-14 0 -18 -5 -14 -15 3 -8 -5 -26 -19 -41 -19 -21 -27 -23 -43 -15 -11 6 -22
8 -25 5 -3 -3 -8 0 -13 7 -4 8 -3 10 4 5 7 -4 12 -1 12 8 0 17 -17 30 -42 32
-10 1 -22 2 -28 3 -6 1 -6 10 0 27 12 31 12 37 2 30 -5 -3 -15 4 -22 15 -16
21 -45 27 -35 7 4 -7 1 -6 -7 3 -8 10 -25 14 -48 12 -19 -2 -46 -5 -60 -6 -14
-1 -28 -5 -31 -10 -3 -4 -45 4 -93 18 -49 14 -111 28 -138 31 -28 2 -54 7 -58
9 -9 6 -160 -41 -180 -56 -12 -9 -11 -10 5 -4 59 20 112 35 128 35 31 0 18
-17 -24 -29 -59 -18 -43 -23 20 -6 29 7 62 10 73 6 16 -6 11 -11 -32 -31 -28
-13 -53 -28 -56 -32 -3 -4 19 4 48 17 76 35 104 32 45 -5 -26 -16 -47 -32 -47
-35 0 -3 11 2 24 10 14 9 42 18 63 21 36 4 35 3 -24 -27 -35 -16 -63 -34 -63
-39 0 -5 16 0 36 12 25 15 35 17 32 8 -2 -8 -19 -20 -37 -27 -30 -13 -33 -12
-38 7 -7 25 -7 25 -80 -4 l-60 -25 -104 31 c-57 17 -106 35 -107 40 -2 4 -7 6
-12 3 -4 -3 -52 9 -106 26 -58 17 -110 28 -126 25 -26 -5 -437 -159 -632 -237
-55 -22 -106 -37 -113 -34 -8 2 -11 0 -8 -5 7 -11 3 -12 -18 -4 -20 7 -25 203
-5 215 10 7 10 9 1 9 -8 0 -13 14 -13 35 0 28 4 36 24 41 30 7 67 44 45 44
-10 1 -8 5 5 15 18 14 12 20 -15 17 -4 -1 -6 20 -4 46 2 40 6 48 31 60 l29 13
-28 -6 c-25 -5 -28 -3 -25 17 2 19 18 28 98 55 52 17 103 32 113 32 33 1 7
-19 -39 -30 -25 -6 -43 -13 -41 -16 3 -2 41 5 85 16 88 23 116 26 93 12 -8 -5
10 -8 48 -6 52 2 60 0 50 -12 -10 -11 -8 -12 15 -3 33 12 46 13 28 1 -19 -12
169 -55 205 -47 21 5 24 4 13 -4 -11 -7 -3 -9 30 -9 25 1 37 3 28 6 -33 8 -19
19 55 43 39 13 79 25 87 28 32 11 -3 -14 -43 -30 -23 -9 -36 -17 -28 -17 8 -1
46 14 85 33 73 35 96 43 131 44 11 0 -3 -7 -32 -16z m87 4 c0 -2 -7 -7 -16
-10 -8 -3 -12 -2 -9 4 6 10 25 14 25 6z m-3355 -36 c3 -6 -1 -7 -9 -4 -18 7
-21 14 -7 14 6 0 13 -4 16 -10z m6593 -37 c-4 -38 -26 -53 -36 -24 -3 8 0 11
7 7 7 -5 9 -1 5 8 -8 20 2 46 16 46 7 0 10 -15 8 -37z m-278 -14 c0 -13 -7
-19 -22 -19 -12 0 -18 3 -15 6 3 4 2 15 -3 25 -7 12 -6 19 3 22 17 6 37 -12
37 -34z m-4931 9 c-1 -1 3 -13 10 -26 8 -15 18 -21 30 -17 11 3 18 0 18 -9 0
-9 -3 -13 -7 -11 -3 2 -25 5 -47 6 -32 2 -40 6 -35 18 4 10 7 11 10 3 9 -28
23 -10 17 21 -4 17 -4 29 0 25 4 -3 6 -8 4 -10z m-213 -10 c4 -7 4 -10 -1 -6
-4 4 -17 3 -29 -3 -20 -10 -20 -10 -2 5 24 19 23 19 32 4z m52 -10 c-2 -18 2
-23 17 -21 11 1 14 0 6 -4 -9 -4 -10 -7 -2 -12 8 -5 9 -16 3 -31 -7 -19 -10
-21 -15 -7 -4 10 -1 17 5 17 6 0 3 9 -7 20 -20 22 -28 60 -13 60 5 0 8 -10 6
-22z m26 6 c3 -8 2 -12 -4 -9 -6 3 -10 10 -10 16 0 14 7 11 14 -7z m196 -4
c13 -9 13 -10 0 -10 -8 0 -22 5 -30 10 -13 9 -13 10 0 10 8 0 22 -5 30 -10z
m5056 -66 c-2 -42 -7 -78 -9 -80 -3 -3 -8 12 -12 33 -4 21 -14 46 -23 56 -15
17 -14 20 13 42 17 13 31 24 33 25 2 0 1 -34 -2 -76z m-1913 32 c7 4 8 3 4 -2
-5 -5 -13 -10 -18 -10 -22 -3 -23 -5 -9 -14 13 -8 13 -10 -2 -10 -9 0 -19 6
-22 13 -5 10 -7 10 -12 0 -8 -18 -21 -16 -21 2 0 10 10 15 29 15 22 0 28 5 29
23 l2 22 4 -23 c3 -14 9 -20 16 -16z m-4573 -17 c0 -13 -7 -19 -22 -18 -13 0
-17 3 -10 6 6 2 12 14 12 24 0 11 5 17 10 14 6 -3 10 -15 10 -26z m6562 -5
c-5 -30 -27 -27 -25 4 1 31 2 32 17 26 8 -3 11 -15 8 -30z m-4309 3 c3 -8 1
-20 -4 -28 -6 -10 -9 -7 -9 14 0 29 5 35 13 14z m2554 7 c-3 -3 -12 -4 -19 -1
-8 3 -5 6 6 6 11 1 17 -2 13 -5z m-4006 -37 c-10 -9 -11 -8 -5 6 3 10 9 15 12
12 3 -3 0 -11 -7 -18z m3824 13 c3 -5 1 -10 -4 -10 -6 0 -11 5 -11 10 0 6 2
10 4 10 3 0 8 -4 11 -10z m-2410 -10 c3 -6 -4 -10 -17 -10 -18 0 -20 2 -8 10
19 12 18 12 25 0z m-3345 -10 c0 -5 -4 -10 -10 -10 -5 0 -10 5 -10 10 0 6 5
10 10 10 6 0 10 -4 10 -10z m2294 2 c3 -5 -1 -9 -9 -9 -8 0 -12 4 -9 9 3 4 7
8 9 8 2 0 6 -4 9 -8z m120 0 c2 -4 -6 -8 -19 -8 -13 0 -21 4 -19 8 3 4 11 8
19 8 8 0 16 -4 19 -8z m60 -14 c-3 -4 -9 -8 -15 -8 -5 0 -9 4 -9 8 0 5 7 9 15
9 8 0 12 -4 9 -9z m106 2 c0 -5 -5 -10 -11 -10 -5 0 -7 5 -4 10 3 6 8 10 11
10 2 0 4 -4 4 -10z m542 -23 c-8 -10 -56 -14 -82 -7 -3 0 15 9 40 19 44 17 62
12 42 -12z m-3067 13 c-3 -5 -11 -10 -16 -10 -6 0 -7 5 -4 10 3 6 11 10 16 10
6 0 7 -4 4 -10z m2470 -12 c5 4 5 1 1 -6 -5 -8 -13 -9 -24 -3 -9 4 -24 6 -32
4 -13 -4 -13 -3 -1 6 9 6 21 6 32 1 9 -5 20 -6 24 -2z m157 -2 c3 2 11 -2 18
-11 8 -10 9 -15 1 -15 -6 0 -11 5 -11 11 0 7 -9 5 -22 -5 -44 -31 -58 -37 -58
-26 0 5 7 10 16 10 8 0 13 4 9 9 -3 5 -1 12 5 16 6 4 7 11 4 17 -4 6 0 6 13
-1 11 -6 23 -8 25 -5z m-2587 -15 c3 -5 2 -12 -3 -15 -5 -3 -9 1 -9 9 0 17 3
19 12 6z m-52 -34 c-5 -8 -8 -7 -11 1 -2 7 -9 9 -14 6 -7 -4 -8 -2 -4 4 4 6
13 9 21 6 8 -4 12 -11 8 -17z m2525 -12 c-3 -3 -9 2 -12 12 -6 14 -5 15 5 6 7
-7 10 -15 7 -18z m5132 -6 c0 -16 -4 -28 -8 -25 -5 3 -8 15 -6 28 3 28 3 28 9
28 3 0 5 -14 5 -31z m-5113 -1 c-3 -8 -6 -5 -6 6 -1 11 2 17 5 13 3 -3 4 -12
1 -19z m88 12 c3 -5 1 -10 -4 -10 -6 0 -11 5 -11 10 0 6 2 10 4 10 3 0 8 -4
11 -10z m-2650 -20 c-3 -5 -12 -10 -18 -10 -7 0 -6 4 3 10 19 12 23 12 15 0z
m72 -16 c-3 -3 -12 -4 -19 -1 -8 3 -5 6 6 6 11 1 17 -2 13 -5z m2533 2 c0 -2
-7 -7 -16 -10 -8 -3 -12 -2 -9 4 6 10 25 14 25 6z m600 -16 c-20 -13 -33 -13
-25 0 3 6 14 10 23 10 15 0 15 -2 2 -10z m-3216 -15 c3 -8 1 -15 -3 -15 -5 0
-11 7 -15 15 -3 8 -1 15 3 15 5 0 11 -7 15 -15z m2582 3 c4 -7 4 -10 -1 -6 -4
4 -15 2 -24 -5 -14 -11 -14 -10 -2 6 16 20 18 21 27 5z m-2707 -5 c-4 -25 3
-34 20 -28 11 3 23 0 27 -6 4 -8 3 -9 -5 -5 -6 4 -18 2 -26 -4 -15 -13 -39 -4
-30 11 9 13 -9 11 -25 -3 -12 -11 -12 -10 -1 4 7 9 10 22 6 28 -3 6 3 10 14
10 12 0 20 -3 20 -7z m3417 -8 c-3 -8 0 -15 6 -15 6 0 9 -2 6 -5 -3 -3 -32 -8
-63 -10 -64 -5 -65 1 -2 26 54 22 60 22 53 4z m-2980 -7 c5 -7 3 -8 -6 -3 -9
6 -11 4 -5 -4 4 -8 11 -9 17 -3 6 6 24 5 50 -3 30 -8 42 -18 45 -34 2 -18 -1
-21 -16 -16 -11 3 -29 0 -39 -6 -16 -10 -23 -10 -37 4 -9 10 -21 15 -26 12 -5
-4 -6 1 -3 9 4 11 0 16 -11 16 -10 0 -13 -5 -9 -12 4 -7 3 -8 -4 -4 -7 4 -12
2 -12 -4 0 -6 -4 -8 -10 -5 -5 3 -10 11 -10 17 0 6 3 9 6 5 8 -8 44 25 38 35
-3 4 2 8 10 8 8 0 18 -5 22 -12z m-201 -28 c-1 -11 -5 -23 -10 -27 -4 -5 -5
-3 -2 3 4 7 0 15 -9 18 -17 7 -10 26 10 26 7 0 12 -9 11 -20z m2705 8 c0 -4
-4 -8 -9 -8 -6 0 -12 4 -15 8 -3 5 1 9 9 9 8 0 15 -4 15 -9z m4860 -15 c0 -13
-3 -13 -15 -3 -8 7 -15 16 -15 21 0 5 7 6 15 3 8 -4 15 -13 15 -21z m-2805 2
c-11 -8 -29 -24 -40 -34 -19 -18 -53 -25 -100 -22 -17 2 -17 4 7 16 15 8 35
16 45 18 10 2 29 8 43 14 65 26 72 28 45 8z m-2078 -10 c4 -4 -2 -5 -14 -2
-13 3 -23 0 -23 -6 0 -6 -3 -8 -6 -4 -3 3 -3 10 0 15 7 12 32 10 43 -3z m503
-15 c0 -17 -7 -34 -17 -40 -17 -11 -17 -11 0 -6 13 4 17 -1 18 -24 3 -76 1
-100 -12 -100 -5 0 -7 5 -4 10 10 16 -11 12 -78 -15 -72 -30 -139 -47 -131
-34 3 5 -2 9 -12 9 -13 0 -11 4 7 21 24 20 24 20 2 9 -17 -8 -23 -8 -23 1 0 6
-7 8 -16 5 -10 -4 -14 -1 -12 6 3 7 57 33 121 57 64 24 115 46 113 48 -2 2
-52 -14 -111 -37 -59 -22 -112 -40 -117 -40 -5 0 -8 10 -6 22 2 16 19 28 68
47 36 15 94 41 130 59 36 17 68 32 73 32 4 0 7 -13 7 -30z m764 20 c-12 -12
-89 -44 -438 -181 -251 -99 -309 -118 -280 -89 9 9 396 167 589 241 98 38 149
49 129 29z m-3614 -11 c0 -5 5 -7 10 -4 17 10 47 -4 53 -25 3 -10 -1 -21 -8
-24 -8 -3 -11 2 -8 13 4 14 -1 19 -21 19 -14 0 -26 -4 -26 -9 0 -5 -10 -9 -22
-8 -23 0 -23 0 1 10 23 9 24 10 5 24 -17 13 -17 14 -1 15 9 0 17 -5 17 -11z
m-536 -31 c-3 -4 -11 -5 -20 -1 -11 4 -12 8 -3 20 10 11 14 11 20 1 4 -6 6
-15 3 -20z m2921 14 c-3 -3 -11 0 -18 7 -9 10 -8 11 6 5 10 -3 15 -9 12 -12z
m375 9 c-26 -15 -66 -24 -55 -13 6 5 19 12 30 15 32 8 41 7 25 -2z m3152 -11
c14 -10 28 -16 32 -13 3 3 6 1 6 -5 0 -7 10 -11 21 -9 12 1 24 -4 26 -10 3 -7
0 -13 -6 -13 -6 0 -35 -11 -65 -25 -61 -28 -78 -26 -95 11 -12 28 -2 56 27 73
23 14 26 14 54 -9z m-968 2 c2 -4 -5 -9 -17 -9 -17 -2 -19 0 -7 7 18 12 18 12
24 2z m666 -2 c-8 -5 -19 -10 -25 -10 -5 0 -3 5 5 10 8 5 20 10 25 10 6 0 3
-5 -5 -10z m1935 0 c3 -5 1 -10 -4 -10 -6 0 -11 5 -11 10 0 6 2 10 4 10 3 0 8
-4 11 -10z m-7392 -25 c50 -16 58 -22 53 -40 -5 -19 -4 -19 8 -2 13 17 16 17
47 2 19 -8 27 -13 18 -11 -9 2 -22 -1 -28 -7 -6 -6 -24 -12 -39 -12 -21 0 -26
-5 -24 -19 3 -17 2 -18 -12 -3 -19 18 -21 31 -4 21 8 -5 9 -2 5 10 -4 9 -3 15
2 12 5 -3 12 1 15 10 3 8 2 12 -4 9 -6 -3 -10 0 -10 7 0 7 -8 1 -18 -15 -9
-15 -22 -25 -29 -22 -7 2 -13 1 -13 -3 0 -4 -9 -8 -20 -9 -22 -2 -47 32 -30
40 6 3 5 4 -2 3 -7 -2 -13 -8 -13 -13 0 -6 -4 -15 -9 -20 -5 -5 -6 -3 -2 5 4
6 2 12 -3 12 -6 0 -11 4 -11 9 0 8 21 17 58 26 20 5 25 12 13 20 -6 3 -11 1
-11 -5 0 -6 -4 -8 -10 -5 -14 9 -12 27 3 23 6 -2 38 -12 70 -23z m2196 15 c-6
-5 -18 -6 -26 -3 -19 8 -16 11 13 11 17 0 22 -3 13 -8z m58 -12 c2 -17 0 -19
-7 -8 -5 8 -6 18 -4 22 8 12 10 10 11 -14z m2448 2 c3 -6 -1 -7 -9 -4 -18 7
-21 14 -7 14 6 0 13 -4 16 -10z m-4905 -10 c0 -5 -4 -10 -10 -10 -5 0 -10 5
-10 10 0 6 5 10 10 10 6 0 10 -4 10 -10z m5590 0 c-8 -5 -19 -10 -25 -10 -5 0
-3 5 5 10 8 5 20 10 25 10 6 0 3 -5 -5 -10z m-6145 -9 c3 -5 2 -12 -3 -15 -5
-3 -9 1 -9 9 0 17 3 19 12 6z m2962 -6 c0 -8 -4 -12 -9 -9 -5 3 -6 10 -3 15 9
13 12 11 12 -6z m2433 5 c12 -8 11 -10 -7 -10 -13 0 -23 5 -23 10 0 13 11 13
30 0z m-2455 -29 c-6 -5 -25 10 -25 20 0 5 6 4 14 -3 8 -7 12 -15 11 -17z
m-2805 5 c-7 -7 -13 -7 -20 0 -6 6 -3 10 10 10 13 0 16 -4 10 -10z m5940 4
c-8 -5 -19 -10 -25 -10 -5 0 -3 5 5 10 8 5 20 10 25 10 6 0 3 -5 -5 -10z
m-6012 -32 l12 -33 -19 24 c-10 13 -23 21 -30 17 -6 -4 -11 -3 -11 3 0 8 14
18 30 20 3 1 11 -14 18 -31z m3016 21 c-5 -8 -1 -8 14 0 13 7 23 7 27 2 6 -11
-1 -16 -37 -25 -25 -6 -28 0 -19 32 1 1 6 2 12 2 5 0 7 -5 3 -11z m1158 -3
c15 -11 -33 -33 -367 -166 -212 -84 -388 -150 -391 -147 -14 14 21 38 99 67
45 17 105 41 132 54 28 13 104 45 170 70 66 26 167 67 225 91 58 25 107 45
110 44 3 0 13 -6 22 -13z m-3992 -10 c0 -2 -7 -7 -16 -10 -8 -3 -12 -2 -9 4 6
10 25 14 25 6z m650 -16 c0 -5 -2 -10 -4 -10 -3 0 -8 5 -11 10 -3 6 -1 10 4
10 6 0 11 -4 11 -10z m60 6 c0 -2 -7 -7 -16 -10 -8 -3 -12 -2 -9 4 6 10 25 14
25 6z m7362 -24 c12 -15 11 -16 -4 -4 -9 8 -22 11 -27 8 -5 -4 -12 -3 -15 2
-10 16 33 10 46 -6z m-1452 -22 c0 -4 -64 -36 -142 -70 -221 -97 -208 -93
-201 -73 4 10 2 14 -4 10 -5 -3 -16 5 -23 18 -7 13 -20 26 -29 28 -9 3 1 5 21
6 25 1 42 8 55 24 20 26 69 47 126 54 21 2 47 7 57 11 24 9 140 3 140 -8z
m-5980 6 c0 -2 -7 -7 -16 -10 -8 -3 -12 -2 -9 4 6 10 25 14 25 6z m7391 -25
c19 12 39 11 39 -1 0 -5 -6 -7 -13 -4 -8 3 -14 -2 -14 -11 0 -11 7 -14 21 -10
18 5 19 5 4 -5 -13 -8 -25 -6 -50 10 -41 25 -55 26 -37 3 11 -15 10 -15 -8 1
-30 25 -19 40 16 22 17 -9 32 -11 42 -5z m134 1 c-3 -3 -11 0 -18 7 -9 10 -8
11 6 5 10 -3 15 -9 12 -12z m-8329 -7 c-24 -18 -33 -19 -42 -3 -4 6 -3 8 4 4
6 -3 13 -2 17 4 3 5 14 10 23 10 15 -1 15 -2 -2 -15z m8099 5 c-3 -5 -12 -10
-18 -10 -7 0 -6 4 3 10 19 12 23 12 15 0z m192 3 c-4 -3 1 -15 10 -26 10 -11
12 -17 4 -12 -8 4 -17 2 -23 -6 -7 -10 -8 -8 -5 9 5 23 -8 32 -15 10 -3 -7 -7
-5 -11 6 -4 9 -3 15 1 12 4 -2 14 -1 22 5 18 10 26 12 17 2z m-2374 -53 c5
-19 -33 -60 -55 -60 -43 0 -52 62 -11 84 30 15 58 5 66 -24z m-5316 23 c-4 -3
3 -17 15 -30 12 -13 19 -23 15 -23 -9 0 -47 42 -47 52 0 4 5 8 12 8 6 0 8 -3
5 -7z m3632 3 c-5 -5 -784 -320 -816 -330 -19 -6 -23 -4 -23 13 0 15 6 21 23
21 42 1 174 45 170 57 -2 6 8 18 24 26 46 24 255 105 305 118 26 7 45 16 43
19 -7 11 108 50 185 64 90 17 94 17 89 12z m933 -18 c-7 -7 -12 -8 -12 -2 0
14 12 26 19 19 2 -3 -1 -11 -7 -17z m-4472 7 c0 -2 -9 -9 -20 -15 -16 -9 -18
-8 -14 5 5 13 34 22 34 10z m6385 -5 c3 -4 -12 -15 -33 -23 -20 -9 -145 -66
-277 -127 -221 -102 -242 -110 -271 -101 -35 13 -70 14 -39 2 15 -6 10 -8 -20
-9 -51 0 -93 -7 -102 -15 -3 -4 -13 -7 -22 -7 -9 0 -27 -6 -41 -13 -32 -17
-50 -11 -50 16 0 17 6 22 28 23 15 1 70 22 122 47 194 91 407 181 475 198 70
18 221 24 230 9z m-7108 -16 c-3 -3 -12 -4 -19 -1 -8 3 -5 6 6 6 11 1 17 -2
13 -5z m503 -6 c0 -5 4 -7 8 -4 4 2 8 -4 8 -14 0 -21 -17 -17 -33 9 -9 14 -8
18 3 18 8 0 14 -4 14 -9z m6819 -22 c-4 -4 -495 -235 -597 -281 -58 -26 -63
-27 -80 -11 -10 9 -21 15 -23 14 -2 -2 5 5 16 14 17 15 288 142 380 179 57 23
300 97 304 93 2 -2 2 -6 0 -8z m-6739 0 c0 -11 -19 -15 -25 -6 -3 5 1 10 9 10
9 0 16 -2 16 -4z m78 -31 c-3 -3 -9 2 -12 12 -6 14 -5 15 5 6 7 -7 10 -15 7
-18z m89 9 c0 -7 -6 -10 -14 -7 -7 3 -13 8 -13 12 0 4 6 8 13 8 8 0 14 -6 14
-13z m4478 -4 c3 -6 -1 -7 -9 -4 -18 7 -21 14 -7 14 6 0 13 -4 16 -10z m-4381
-15 c-4 -8 -8 -15 -10 -15 -2 0 -4 7 -4 15 0 8 4 15 10 15 5 0 7 -7 4 -15z
m4431 -5 c-3 -5 -12 -10 -18 -10 -7 0 -6 4 3 10 19 12 23 12 15 0z m-5045 -9
c0 10 4 9 16 -3 13 -12 23 -14 41 -7 20 7 25 5 35 -16 11 -24 12 -24 30 -8 15
14 18 14 13 2 -7 -19 41 -45 49 -26 2 7 5 1 5 -13 1 -19 3 -22 10 -10 6 8 7
18 5 22 -3 4 0 8 6 8 7 0 9 -7 6 -16 -3 -9 -6 -20 -6 -25 0 -5 -7 -9 -15 -9
-8 0 -15 5 -15 12 0 6 -2 9 -5 6 -3 -3 -54 12 -112 33 -59 22 -109 39 -112 39
-4 0 1 4 9 10 9 5 19 5 27 -2 10 -8 13 -7 13 3z m420 -11 c0 -5 -2 -10 -4 -10
-3 0 -8 5 -11 10 -3 6 -1 10 4 10 6 0 11 -4 11 -10z m3610 0 c-14 -8 -639
-265 -779 -320 -28 -11 -51 -16 -51 -11 0 10 278 151 297 151 6 0 74 26 150
59 182 77 246 100 318 116 73 16 85 17 65 5z m3190 -9 c0 -5 -21 -18 -47 -29
-27 -12 -149 -69 -273 -127 -319 -151 -394 -184 -429 -191 -165 -33 380 246
659 337 61 20 90 23 90 10z m-6827 -21 c-3 -12 -8 -19 -11 -16 -5 6 5 36 12
36 2 0 2 -9 -1 -20z m159 -17 c-3 -16 -7 -22 -10 -15 -4 13 4 42 11 42 2 0 2
-12 -1 -27z m5499 8 c23 -19 23 -19 5 -40 -27 -30 -54 -36 -77 -15 -25 22 -24
39 3 58 29 21 41 20 69 -3z m-1151 -33 c0 -4 -4 -8 -9 -8 -6 0 -12 4 -15 8 -3
5 1 9 9 9 8 0 15 -4 15 -9z m-4673 -20 c-3 -8 -6 -5 -6 6 -1 11 2 17 5 13 3
-3 4 -12 1 -19z m48 12 c3 -5 1 -10 -4 -10 -6 0 -11 5 -11 10 0 6 2 10 4 10 3
0 8 -4 11 -10z m7081 -2 c4 -6 3 -8 -4 -4 -5 3 -12 2 -14 -3 -4 -11 -753 -370
-805 -386 -17 -4 -23 -2 -23 8 0 9 -6 18 -12 20 -7 3 -3 6 9 6 12 1 82 32 155
70 165 86 415 202 522 243 45 17 97 36 116 44 44 16 47 17 56 2z m-2582 -26
l70 -18 -32 -13 c-28 -12 -35 -11 -58 4 -14 9 -33 14 -42 10 -9 -3 -13 -3 -9
1 4 4 2 13 -4 21 -14 17 -9 16 75 -5z m-716 -7 c-2 -2 -55 -24 -118 -50 -63
-26 -212 -88 -330 -137 -274 -115 -288 -120 -309 -109 -18 11 -34 2 254 126
241 103 435 172 483 172 13 0 22 -1 20 -2z m3437 -35 c4 -6 -1 -7 -11 -3 -12
4 -15 3 -10 -5 5 -8 1 -10 -10 -5 -12 4 -15 3 -10 -5 5 -8 1 -10 -10 -5 -12 4
-15 3 -10 -5 5 -8 1 -10 -10 -5 -11 4 -15 2 -11 -4 4 -6 0 -14 -9 -17 -10 -4
-13 -2 -9 7 4 6 1 5 -7 -4 -12 -14 -276 -147 -620 -311 -114 -54 -131 -60
-165 -52 -37 8 -38 8 -8 12 16 2 42 13 58 24 44 31 351 181 509 249 79 33 163
72 188 86 38 22 108 50 132 52 4 1 10 -3 13 -9z m-6603 -25 c-8 -16 -9 -16
-15 -1 -4 10 -3 15 3 11 6 -3 10 -1 10 6 0 7 3 10 6 6 3 -3 2 -13 -4 -22z
m4057 4 c-22 -14 -33 -10 -19 6 7 8 17 12 22 9 6 -4 5 -10 -3 -15z m-4462 -15
c-3 -3 -12 -4 -19 -1 -8 3 -5 6 6 6 11 1 17 -2 13 -5z m270 -29 c-4 -8 3 -11
18 -9 34 3 60 -38 44 -68 -10 -19 -9 -24 10 -36 26 -18 27 -48 3 -61 -37 -20
-131 43 -132 89 -1 30 -70 88 -70 58 0 -6 -3 -9 -6 -5 -4 3 -4 14 0 23 4 11
10 13 19 6 17 -13 67 -21 67 -11 0 5 -4 9 -10 9 -19 0 -10 16 10 17 13 1 18
-3 15 -10 -3 -7 0 -4 7 5 13 18 32 13 25 -7z m4128 7 c-3 -3 -11 0 -18 7 -9
10 -8 11 6 5 10 -3 15 -9 12 -12z m-4210 -2 c-3 -5 -11 -10 -16 -10 -6 0 -7 5
-4 10 3 6 11 10 16 10 6 0 7 -4 4 -10z m-73 -22 c-7 -7 -12 -8 -12 -2 0 14 12
26 19 19 2 -3 -1 -11 -7 -17z m3488 3 c-16 -10 -427 -182 -665 -280 -82 -34
-161 -61 -175 -60 -21 1 -22 2 -5 6 11 3 45 20 75 39 58 36 149 75 473 205
190 76 249 96 292 98 16 0 17 -1 5 -8z m3460 -19 c0 -5 -24 -20 -52 -34 -29
-15 -241 -119 -472 -233 -384 -190 -421 -206 -456 -200 -32 5 -39 3 -44 -13
-4 -10 -17 -25 -31 -32 -20 -11 -30 -10 -63 3 -28 11 -42 13 -50 5 -8 -8 -9
-5 -5 12 3 12 1 25 -5 29 -8 5 -7 15 3 34 7 15 11 27 8 27 -15 0 49 41 67 43
11 1 20 6 20 11 0 5 16 -8 35 -30 19 -21 35 -43 35 -47 0 -5 5 -5 12 -1 7 4
31 9 54 10 45 1 121 35 509 225 233 113 414 197 428 198 4 1 7 -3 7 -7z
m-2605 -60 c-3 -3 -11 0 -18 7 -9 10 -8 11 6 5 10 -3 15 -9 12 -12z m-816 -36
c-5 -5 -337 -147 -607 -261 -177 -74 -184 -76 -203 -59 -17 16 -18 19 -4 26 8
5 20 6 25 3 6 -3 10 -1 10 5 0 6 5 8 10 5 12 -7 149 43 290 105 257 114 424
179 459 179 13 1 22 -1 20 -3z m734 -21 c-3 -9 -8 -14 -10 -11 -3 3 -2 9 2 15
9 16 15 13 8 -4z m-3763 -19 c0 -2 -8 -10 -17 -17 -16 -13 -17 -12 -4 4 13 16
21 21 21 13z m3572 -42 c43 -14 78 -29 78 -32 0 -4 -17 -15 -38 -24 -20 -10
-28 -15 -17 -12 11 3 40 11 65 17 25 6 47 14 50 17 7 8 27 6 36 -2 4 -5 0 -8
-9 -8 -9 0 -19 -5 -23 -12 -5 -7 -2 -9 8 -6 12 5 14 0 10 -20 -5 -25 -4 -26
13 -12 10 8 16 10 12 3 -4 -6 -1 -14 5 -16 7 -3 -12 -5 -42 -4 -30 1 -58 6
-62 12 -4 5 -6 -7 -5 -27 3 -30 1 -35 -10 -26 -10 8 -13 7 -13 -3 0 -11 -2
-11 -9 0 -14 21 -138 40 -176 27 l-30 -10 31 -8 c34 -9 79 -51 70 -67 -4 -5
-32 -13 -64 -17 -31 -4 -51 -9 -44 -11 6 -3 10 -9 7 -14 -4 -5 7 -6 24 -3 30
6 61 -8 61 -27 0 -5 -23 -25 -51 -45 -27 -20 -47 -40 -42 -44 13 -12 115 -21
108 -10 -4 6 -30 10 -58 10 -38 0 -48 3 -37 10 8 6 35 9 60 8 25 -1 56 5 70
12 22 12 24 12 12 -2 -7 -9 -10 -22 -6 -31 3 -8 1 -18 -5 -22 -7 -3 -8 0 -5 9
3 9 1 16 -5 16 -15 0 -14 -35 2 -48 13 -11 42 -11 53 1 8 8 24 -1 24 -13 0 -5
-8 -6 -17 -3 -13 5 -15 2 -10 -11 5 -12 3 -15 -6 -10 -9 5 -9 4 1 -7 19 -21
14 -36 -12 -36 -18 0 -23 4 -19 14 5 13 2 13 -17 3 -17 -9 -25 -9 -34 1 -8 9
-8 10 1 5 6 -3 14 -2 18 4 3 5 -3 10 -14 10 -11 0 -22 -4 -26 -10 -3 -6 -15
-6 -29 0 -13 5 -26 7 -29 4 -2 -3 -14 -7 -26 -9 -13 -2 -32 -7 -43 -11 -12 -3
-18 -2 -15 3 7 11 -23 11 -41 -1 -7 -4 -9 -12 -6 -18 5 -7 2 -8 -5 -4 -7 5
-10 14 -7 22 7 18 -8 18 -24 -1 -9 -11 -17 -12 -30 -5 -16 9 -18 7 -14 -13 2
-16 -1 -24 -12 -24 -9 0 -13 6 -9 16 5 12 3 13 -6 4 -6 -6 -18 -9 -27 -6 -10
4 -13 2 -8 -5 3 -6 1 -14 -5 -18 -8 -4 -7 -9 2 -16 11 -8 11 -9 -1 -5 -8 2
-15 10 -15 18 0 15 -21 32 -43 35 -8 2 -11 -3 -8 -11 3 -8 0 -17 -6 -21 -6 -4
-8 -3 -5 2 3 6 -3 15 -14 22 -15 10 -19 10 -17 0 2 -7 -8 -14 -21 -16 -15 -2
-21 0 -16 7 3 6 12 9 18 5 7 -3 4 1 -5 9 -14 11 -15 16 -5 27 9 10 9 11 0 6
-7 -4 -21 -2 -30 3 -15 9 -14 11 12 12 17 1 35 2 42 2 6 0 9 5 7 12 -3 7 0 16
7 21 7 4 10 3 5 -4 -11 -19 11 -22 31 -4 10 9 14 14 7 9 -7 -4 -14 -2 -17 6
-6 15 -30 15 -67 -1 -18 -8 -20 -11 -7 -11 9 -1 17 -6 17 -12 0 -5 -4 -8 -10
-4 -13 8 -61 -5 -55 -15 3 -5 1 -11 -4 -15 -6 -3 -8 -12 -5 -19 3 -8 0 -17 -7
-22 -9 -5 -10 -2 -6 10 5 14 3 17 -8 12 -8 -3 -15 -1 -15 5 0 6 -9 5 -22 -2
-22 -11 -22 -11 -6 7 16 19 16 20 -9 22 -15 1 -30 7 -34 13 -4 7 -12 8 -18 5
-6 -4 -11 -2 -11 4 0 6 -11 4 -25 -6 -21 -13 -24 -14 -20 -2 4 9 0 15 -9 15
-8 0 -18 -7 -20 -14 -4 -10 -11 -11 -23 -5 -20 10 -46 5 -38 -8 3 -4 -2 -10
-10 -14 -8 -3 -15 0 -15 7 0 7 -5 4 -11 -6 -8 -13 -14 -15 -29 -7 -13 7 -19 6
-24 -6 -3 -9 -3 -21 1 -26 4 -7 1 -8 -7 -3 -17 11 -91 14 -84 4 2 -4 -14 -7
-36 -6 -38 2 -57 -11 -51 -37 1 -5 -5 -4 -13 4 -13 10 -16 10 -16 -4 0 -9 5
-16 10 -16 6 0 -4 -14 -22 -31 -18 -17 -27 -28 -20 -24 6 3 12 2 12 -3 0 -15
-70 -44 -91 -39 -10 3 -22 1 -25 -4 -3 -5 0 -9 6 -9 6 0 8 -4 5 -10 -9 -14 8
-13 23 2 9 9 12 9 12 0 0 -6 7 -9 15 -6 10 4 13 0 10 -16 -3 -14 0 -20 8 -17
7 3 11 10 10 16 -2 6 8 11 22 11 19 0 29 9 42 35 18 37 30 43 53 23 12 -11 12
-10 4 2 -8 13 -9 24 -5 53 0 4 11 3 22 -4 12 -6 19 -7 15 -1 -6 11 11 29 34
34 23 5 30 21 17 37 -10 12 -9 13 10 3 15 -8 20 -18 16 -32 -3 -12 -2 -20 3
-19 5 1 16 1 24 0 12 -1 11 -4 -3 -16 -11 -7 -26 -11 -35 -8 -12 5 -14 1 -9
-15 7 -30 -19 -58 -39 -41 -19 16 -30 3 -14 -16 10 -13 9 -15 -9 -15 -11 0
-21 4 -21 9 0 5 -8 8 -17 7 -10 0 -17 5 -15 12 1 8 -2 11 -9 7 -7 -5 -8 -10 0
-18 7 -7 7 -16 0 -28 -5 -10 -9 -22 -8 -26 4 -22 -3 -33 -18 -33 -14 0 -15 2
-5 9 11 7 10 9 -3 14 -9 4 -13 3 -10 -3 3 -6 1 -10 -6 -10 -8 0 -7 -5 2 -17
13 -15 12 -15 -9 -4 -13 7 -20 17 -15 24 4 8 1 7 -10 -1 -9 -8 -22 -10 -29 -6
-7 4 -5 -2 5 -13 17 -19 17 -21 0 -34 -17 -13 -17 -13 -3 5 14 18 13 19 -2 13
-13 -4 -18 -1 -19 11 0 13 -2 13 -9 -4 -11 -27 -39 -40 -35 -16 2 9 4 19 4 22
1 3 6 -2 12 -10 9 -13 10 -13 6 1 -3 9 0 22 6 29 7 7 0 5 -14 -4 -14 -9 -29
-13 -34 -9 -4 5 -5 0 -2 -9 4 -13 2 -15 -10 -11 -12 5 -14 3 -8 -7 6 -9 4 -11
-4 -6 -7 5 -10 15 -6 24 5 14 4 14 -12 0 -10 -8 -26 -14 -35 -13 -10 2 -18 -1
-18 -6 0 -6 -4 -8 -10 -4 -5 3 -7 11 -4 18 3 8 -9 11 -41 10 -25 -1 -45 2 -45
6 0 10 59 23 71 15 5 -3 6 2 3 11 -5 11 -2 14 10 9 9 -3 16 -11 16 -17 0 -6 3
-7 6 -4 4 4 2 13 -5 21 -9 11 -7 14 14 14 13 0 22 -4 19 -9 -3 -5 2 -6 10 -3
9 3 16 10 16 16 0 5 -5 6 -12 2 -7 -4 -8 -3 -4 4 5 9 13 9 28 1 12 -7 18 -7
14 -1 -3 6 -3 12 1 15 5 2 2 2 -4 1 -13 -3 -17 8 -13 35 1 13 -1 13 -14 2 -9
-8 -14 -16 -12 -19 9 -8 -18 -27 -64 -44 -25 -9 -60 -22 -78 -30 -29 -11 -40
-10 -100 11 -37 12 -80 29 -97 35 -33 15 -172 67 -342 130 -62 23 -115 44
-118 48 -3 3 50 28 117 55 117 47 126 49 188 43 85 -9 225 -50 208 -61 -20
-13 -7 -11 46 7 26 9 45 18 43 20 -2 3 -17 0 -32 -6 -28 -11 -105 5 -105 22 0
7 41 13 64 9 6 -1 19 2 30 7 26 12 121 39 158 46 54 9 36 -12 -33 -39 -39 -15
-68 -29 -66 -32 3 -2 56 16 118 41 62 26 122 46 134 46 20 0 126 42 394 154
74 31 146 56 160 56 14 0 57 -11 94 -24 37 -12 63 -18 58 -13 -6 6 -41 20 -78
32 l-68 22 30 12 c17 7 57 19 90 27 184 42 253 56 275 56 14 0 38 7 53 15 33
17 75 9 44 -8 -9 -6 -22 -7 -29 -3 -7 5 -8 3 -3 -6 6 -10 4 -12 -8 -7 -10 3
-17 2 -17 -4 0 -6 -6 -7 -12 -3 -8 4 -9 3 -5 -2 5 -5 -32 -29 -90 -57 -54 -27
-89 -45 -78 -41 11 4 30 7 42 7 13 -1 21 3 18 7 -9 14 315 158 360 160 11 0
55 -12 97 -26z m-3025 4 c-10 -5 -14 -15 -10 -25 5 -13 3 -13 -14 3 -25 23
-21 32 13 32 21 0 24 -2 11 -10z m-41 -27 c19 15 18 2 -1 -18 -8 -8 -13 -19
-10 -24 4 -5 1 -9 -5 -9 -7 0 -10 6 -7 14 3 8 -1 20 -9 27 -12 9 -12 15 -2 27
11 13 13 12 16 -7 3 -18 6 -20 18 -10z m1684 20 c0 -9 -83 -41 -104 -41 -6 1
14 12 44 25 65 29 60 27 60 16z m1845 -31 c-3 -5 -12 -10 -18 -10 -7 0 -6 4 3
10 19 12 23 12 15 0z m957 -7 c24 -21 23 -68 -2 -93 -22 -22 -48 -25 -83 -9
-21 10 -24 17 -21 55 1 24 5 48 9 54 10 16 77 12 97 -7z m-4522 -7 c0 -3 -4
-8 -10 -11 -5 -3 -10 -1 -10 4 0 6 5 11 10 11 6 0 10 -2 10 -4z m3330 -80 c0
-2 -8 -10 -17 -17 -16 -13 -17 -12 -4 4 13 16 21 21 21 13z m-62 -24 c15 12
16 11 3 -4 -18 -23 -43 -24 -34 -1 4 11 8 13 11 5 3 -10 7 -10 20 0z m172 4
c0 -3 -4 -8 -10 -11 -5 -3 -10 -1 -10 4 0 6 5 11 10 11 6 0 10 -2 10 -4z
m-350 -51 c0 -5 -5 -3 -10 5 -5 8 -10 20 -10 25 0 6 5 3 10 -5 5 -8 10 -19 10
-25z m87 -3 c-8 -7 -21 -10 -31 -6 -21 8 -7 20 24 20 17 0 18 -3 7 -14z m207
-30 c3 -5 -1 -9 -9 -9 -8 0 -15 4 -15 9 0 4 4 8 9 8 6 0 12 -4 15 -8z m-229
-12 c3 -6 -1 -7 -9 -4 -18 7 -21 14 -7 14 6 0 13 -4 16 -10z m-58 -35 c0 -8
-4 -12 -9 -9 -4 3 -8 9 -8 15 0 5 4 9 8 9 5 0 9 -7 9 -15z m148 -5 c-3 -5 -12
-7 -20 -3 -21 7 -19 13 6 13 11 0 18 -4 14 -10z m65 -24 c0 -3 -4 -8 -10 -11
-5 -3 -10 -1 -10 4 0 6 5 11 10 11 6 0 10 -2 10 -4z m-256 -14 c3 -5 -1 -9 -9
-9 -8 0 -12 4 -9 9 3 4 7 8 9 8 2 0 6 -4 9 -8z m-2423 -17 c8 5 11 5 7 1 -4
-5 7 -21 23 -37 29 -28 37 -49 20 -49 -5 0 -13 -9 -16 -21 -4 -11 -18 -25 -31
-31 -19 -9 -28 -8 -44 7 -11 10 -20 28 -20 39 0 12 -4 27 -9 35 -12 19 -2 51
15 44 8 -3 17 3 20 12 5 12 9 13 14 5 5 -7 13 -9 21 -5z m2580 -4 c-6 -10 -7
-21 -4 -25 3 -3 -1 -6 -10 -6 -20 0 -21 4 -5 30 16 25 32 26 19 1z m908 -18
c-13 -14 -11 -16 13 -11 17 3 25 1 22 -7 -3 -6 5 -11 18 -12 13 0 30 -2 38 -4
10 -3 14 3 13 16 -1 11 0 15 3 8 3 -7 13 -9 22 -6 9 3 14 3 10 -2 -4 -4 -3
-14 3 -22 6 -7 10 -13 8 -14 -34 -7 -45 -6 -56 2 -7 6 -17 8 -22 4 -6 -3 -21
0 -33 7 -13 6 -31 11 -42 9 -12 -2 -16 1 -11 9 6 9 -2 10 -26 6 -31 -6 -32 -5
-9 5 14 6 32 15 40 19 22 13 24 12 9 -7z m86 -4 c11 -16 1 -19 -13 -3 -7 8 -8
14 -3 14 5 0 13 -5 16 -11z m763 -35 c2 -20 -3 -43 -10 -51 -13 -16 -141 -83
-158 -83 -5 0 -10 19 -10 43 0 40 2 43 45 66 24 13 42 28 38 34 -3 5 -1 7 4 4
6 -4 26 0 44 8 46 19 45 20 47 -21z m-658 4 c0 -6 9 -8 20 -5 11 3 18 0 17 -7
-1 -6 10 -11 25 -10 15 1 25 -3 22 -8 -3 -5 0 -9 7 -7 26 3 62 -1 57 -7 -5 -5
-28 -11 -50 -13 -4 -1 -4 -9 -1 -18 6 -15 5 -16 -9 -3 -11 11 -12 17 -4 22 6
4 8 8 4 8 -3 0 -13 3 -21 6 -10 3 -17 -2 -20 -13 -4 -16 -5 -16 -6 2 -1 13 -8
21 -21 22 -11 1 -18 -3 -14 -8 3 -5 2 -8 -3 -7 -4 1 -19 -3 -33 -10 -23 -12
-24 -12 -6 2 11 9 17 19 13 22 -4 4 -2 13 5 21 6 8 7 13 2 12 -17 -3 -25 1
-19 11 7 11 35 2 35 -12z m-209 -15 c13 -16 12 -17 -3 -5 -9 8 -22 11 -27 8
-5 -4 -12 -2 -16 4 -11 18 32 11 46 -7z m-648 -21 c-3 -7 -9 -10 -12 -5 -10
14 -47 7 -86 -16 -28 -16 -41 -19 -56 -11 -10 6 -19 13 -19 16 0 3 5 2 11 -1
5 -4 18 0 27 8 25 21 42 26 94 25 35 -1 45 -5 41 -16z m1001 -34 c-3 -4 -12
-8 -20 -8 -8 0 -14 4 -14 8 0 4 9 8 19 8 11 0 17 -4 15 -8z m-1138 -20 c4 -5
18 -8 31 -8 12 0 23 -5 23 -11 0 -8 4 -8 14 0 11 9 15 7 19 -9 4 -14 10 -18
23 -13 12 4 15 3 10 -5 -4 -7 -15 -12 -24 -12 -15 -1 -15 -2 2 -11 14 -9 20
-8 26 1 5 8 10 9 14 2 9 -15 -10 -24 -34 -17 -11 4 -20 2 -20 -3 0 -5 -6 -9
-14 -9 -8 0 -11 8 -8 19 5 20 -13 25 -24 6 -5 -7 -2 -8 7 -3 10 5 11 5 4 -3
-5 -6 -23 -13 -40 -17 -30 -6 -30 -6 -6 8 17 10 20 16 10 19 -8 3 -24 -6 -36
-21 -17 -21 -24 -24 -34 -13 -16 15 -33 16 -23 1 4 -8 0 -9 -15 -4 -16 5 -20
3 -15 -9 5 -12 10 -13 25 -5 15 7 23 6 35 -6 9 -8 20 -13 25 -10 5 4 9 1 9 -5
0 -8 -7 -9 -17 -5 -41 17 -53 16 -77 -2 -22 -17 -22 -20 -8 -31 13 -9 10 -9
-11 0 -23 10 -25 13 -12 20 13 8 22 48 11 48 -15 0 -35 -13 -31 -20 3 -5 -4
-11 -15 -15 -23 -7 -26 -21 -7 -28 8 -4 7 -6 -3 -6 -9 -1 -22 5 -29 12 -10 10
-11 8 -6 -8 5 -15 4 -17 -3 -6 -13 18 -4 43 12 34 6 -4 5 1 -3 10 -14 18 -47
24 -36 7 4 -6 12 -7 18 -3 7 3 4 -3 -7 -15 -12 -14 -16 -30 -13 -44 l6 -23
-19 23 c-10 12 -23 22 -29 22 -6 0 -11 4 -11 9 0 4 11 7 25 6 31 -4 42 11 15
18 -23 6 -27 27 -5 27 8 0 15 6 15 14 0 17 43 46 69 46 27 0 69 20 75 35 3 8
-4 11 -20 9 -13 -1 -22 1 -20 5 6 10 142 8 152 -1z m-808 -29 c-3 -8 -7 -3
-11 10 -4 17 -3 21 5 13 5 -5 8 -16 6 -23z m267 -7 c-3 -3 -11 0 -18 7 -9 10
-8 11 6 5 10 -3 15 -9 12 -12z m-35 -26 c0 -3 -4 -8 -10 -11 -5 -3 -10 -1 -10
4 0 6 5 11 10 11 6 0 10 -2 10 -4z m-586 -72 c3 -8 12 -14 21 -14 8 0 15 -4
15 -10 0 -11 -32 -1 -42 14 -9 13 -50 17 -42 4 3 -4 10 -6 15 -3 5 3 6 -1 3
-9 -7 -19 -33 -10 -30 10 5 33 48 39 60 8z m1410 -25 c-13 -6 -8 -8 21 -7 22
1 43 6 46 11 3 5 13 2 21 -6 9 -9 20 -12 28 -7 16 10 62 2 71 -12 4 -6 12 -7
19 -3 9 5 11 4 6 -3 -6 -11 8 -17 60 -27 10 -2 20 -4 21 -4 1 -1 -4 -13 -12
-28 -8 -15 -11 -31 -8 -36 3 -6 1 -7 -6 -3 -6 4 -9 12 -6 17 4 5 0 9 -7 10 -7
1 -22 2 -33 3 -12 0 -19 7 -17 15 3 12 0 12 -12 2 -11 -10 -20 -10 -36 -1 -12
7 -30 10 -40 7 -14 -4 -17 -1 -12 12 5 13 3 14 -10 3 -12 -10 -18 -10 -27 2
-19 23 -110 9 -96 -15 9 -14 -9 -11 -31 6 -16 12 -16 21 1 13 5 -3 34 34 35
44 0 4 -7 5 -15 2 -8 -4 -12 -10 -9 -15 3 -5 0 -9 -5 -9 -18 0 -12 17 11 32
12 8 31 13 42 10 20 -5 20 -5 0 -13z m-1349 -9 c3 -5 1 -10 -4 -10 -6 0 -11 5
-11 10 0 6 2 10 4 10 3 0 8 -4 11 -10z m1265 -15 c-11 -13 -10 -14 6 -9 16 6
17 5 7 -7 -10 -9 -16 -10 -24 -2 -12 12 -4 33 13 33 6 0 6 -6 -2 -15z m-1360
1 c0 -3 -4 -8 -10 -11 -5 -3 -10 -1 -10 4 0 6 5 11 10 11 6 0 10 -2 10 -4z
m230 -17 c0 11 3 11 15 1 8 -7 24 -10 35 -7 11 3 20 1 20 -5 0 -5 4 -7 9 -3 5
3 12 2 15 -3 7 -12 66 -2 66 10 0 7 4 7 13 1 16 -13 57 -23 57 -14 0 11 119 4
151 -9 16 -7 26 -17 23 -22 -3 -5 -12 -4 -20 3 -11 9 -14 9 -14 -1 0 -7 -7
-10 -16 -6 -8 3 -12 2 -9 -3 3 -5 1 -12 -4 -15 -14 -9 -21 20 -8 35 7 7 3 6
-9 -4 -11 -9 -25 -14 -29 -10 -5 5 -4 1 3 -9 8 -9 9 -19 4 -22 -6 -3 -13 1
-16 10 -6 15 -8 15 -25 0 -11 -10 -28 -16 -38 -15 -10 2 -24 0 -30 -4 -9 -6
-11 -3 -7 7 3 9 10 16 15 16 5 0 9 4 9 8 0 5 -7 9 -15 9 -8 0 -12 -4 -9 -9 3
-4 -7 -13 -21 -18 -17 -7 -24 -14 -19 -22 5 -7 -3 -5 -16 4 -14 9 -24 22 -22
30 1 7 -5 4 -13 -6 -8 -11 -15 -24 -15 -29 0 -4 -5 -5 -10 -2 -6 4 -7 12 -3
18 4 7 -2 5 -12 -3 -17 -14 -18 -13 -12 4 7 17 6 17 -9 5 -19 -15 -64 -20 -64
-6 0 4 -5 5 -10 2 -7 -5 -8 -11 -1 -19 7 -8 4 -12 -10 -13 -10 -1 -19 3 -19 8
0 6 -4 7 -10 4 -5 -3 -10 -1 -10 6 0 8 -5 8 -17 -2 -16 -11 -16 -11 -5 1 7 8
18 15 24 15 6 0 13 5 15 12 3 7 -3 9 -18 6 -19 -5 -20 -4 -9 16 7 13 17 20 26
17 7 -3 13 -1 11 4 -3 15 47 38 55 26 5 -7 8 -6 8 3z m1002 -49 c9 0 9 -3 0
-12 -14 -14 -45 -20 -36 -7 3 5 0 9 -5 9 -6 0 -11 -5 -11 -11 0 -6 -6 -9 -14
-6 -8 3 -22 -3 -32 -14 -10 -11 -25 -18 -34 -16 -17 4 -21 -26 -5 -40 4 -5 5
-2 1 5 -10 17 9 15 23 -2 9 -11 8 -14 -6 -12 -12 0 -17 -5 -17 -17 2 -17 0
-17 -15 -3 -10 9 -21 13 -25 9 -4 -5 -12 -9 -17 -9 -5 -1 -12 -2 -15 -3 -4 0
-1 -7 5 -15 14 -17 -2 -31 -25 -22 -20 8 -1 43 31 58 14 6 21 16 18 24 -4 11
-9 10 -23 -6 -10 -12 -27 -22 -39 -23 -13 -1 -17 -5 -11 -12 8 -9 3 -55 -5
-55 -2 0 -16 7 -31 15 -21 11 -24 15 -10 15 13 0 16 5 11 18 -3 9 -7 21 -8 27
-1 5 -8 15 -16 21 -10 8 -11 15 -3 31 6 11 8 24 4 28 -4 4 0 6 8 5 8 -1 22 -2
30 -1 13 1 13 2 0 11 -8 5 -10 10 -4 10 6 0 17 -7 24 -15 11 -13 15 -13 21 -3
7 10 9 9 9 -3 0 -9 8 -20 18 -24 13 -5 14 -4 5 6 -10 10 -9 16 4 31 10 11 11
18 5 18 -7 0 -12 5 -12 11 0 5 5 7 10 4 6 -3 10 -1 10 4 0 6 7 11 16 11 9 0
12 -5 8 -12 -5 -8 -2 -9 10 -5 9 4 15 3 12 -2 -3 -5 8 -11 24 -13 29 -4 30 -4
12 15 -9 11 -11 17 -5 13 7 -4 21 -2 30 3 14 8 23 5 40 -14 12 -14 28 -25 35
-25z m18 41 c0 -6 -4 -12 -8 -15 -5 -3 -9 1 -9 9 0 8 4 15 9 15 4 0 8 -4 8 -9z
m92 -8 c10 -9 18 -12 18 -7 0 5 5 2 10 -6 5 -8 10 -19 10 -25 0 -5 -5 -3 -10
5 -8 12 -12 13 -19 2 -7 -11 -9 -11 -14 2 -9 22 -22 20 -46 -5 -19 -21 -20
-21 -15 -1 3 11 15 25 27 30 19 10 17 11 -13 6 -19 -2 -30 -1 -23 4 21 14 57
12 75 -5z m-1492 -3 c0 -5 -5 -10 -11 -10 -5 0 -7 5 -4 10 3 6 8 10 11 10 2 0
4 -4 4 -10z m2195 -8 c-3 -3 -11 0 -18 7 -9 10 -8 11 6 5 10 -3 15 -9 12 -12z
m-1075 2 c0 -8 -19 -13 -24 -6 -3 5 1 9 9 9 8 0 15 -2 15 -3z m35 -14 c3 -6
-1 -7 -9 -4 -18 7 -21 14 -7 14 6 0 13 -4 16 -10z m-166 -13 c12 16 31 12 41
-7 6 -11 15 -18 21 -15 5 4 8 -8 7 -28 -2 -19 -6 -33 -10 -30 -7 4 -12 -15
-11 -44 1 -17 -2 -16 -23 4 -17 17 -17 16 -10 -10 4 -19 3 -26 -4 -22 -5 3
-10 16 -10 28 0 18 -2 19 -10 7 -8 -12 -10 -12 -10 -1 0 8 -3 11 -6 8 -4 -4
-1 -13 6 -22 10 -12 10 -15 -4 -15 -9 0 -16 4 -16 10 0 5 -7 7 -16 3 -10 -4
-14 -14 -11 -29 2 -13 0 -24 -5 -24 -5 0 -6 -5 -2 -12 4 -6 3 -8 -4 -4 -12 7
-21 -4 -27 -34 -2 -11 1 -20 7 -20 6 0 5 -7 -3 -16 -12 -15 -11 -16 11 -9 14
4 21 4 17 -1 -7 -7 -39 -11 -110 -14 -9 -1 -15 -5 -12 -11 6 -8 -11 -13 -42
-12 -7 1 -10 -3 -7 -8 3 -5 1 -9 -3 -9 -5 0 -14 10 -22 21 -11 19 -11 21 3 16
14 -5 15 -3 6 13 -6 12 -7 21 0 25 5 3 7 12 3 20 -4 11 -1 13 11 9 12 -5 15
-2 9 12 -5 14 -3 16 12 11 16 -7 16 -5 4 9 -12 15 -11 16 10 9 15 -4 21 -4 17
3 -3 6 7 16 24 24 16 7 30 17 30 23 1 5 8 -3 17 -20 9 -17 18 -25 21 -17 2 6
9 9 15 5 7 -4 8 0 4 11 -4 10 -7 22 -7 27 0 5 -5 9 -11 9 -6 0 -8 -7 -5 -17 6
-14 3 -14 -15 3 -11 10 -24 18 -28 17 -3 -2 -6 15 -6 36 -1 32 2 38 17 36 24
-5 23 11 -2 18 -10 3 -24 -1 -31 -9 -8 -10 -16 -11 -30 -3 -25 13 -25 29 0 22
10 -3 22 0 26 7 5 8 10 8 20 0 10 -8 19 -8 36 0 17 10 20 9 14 -1 -5 -8 -4
-10 3 -5 7 4 12 13 12 21 0 10 9 11 42 4 23 -6 44 -6 47 -2z m982 -37 c6 0 8
4 4 9 -3 5 -1 12 4 15 5 4 8 -5 7 -19 -2 -13 1 -22 5 -19 5 3 16 1 25 -4 11
-6 13 -12 6 -16 -6 -3 -13 -2 -17 3 -3 6 -12 8 -19 5 -8 -3 -17 0 -21 5 -3 6
-11 9 -16 6 -8 -5 -7 7 2 50 1 6 4 0 6 -12 2 -13 9 -23 14 -23z m109 -5 c0 -7
-30 -13 -34 -7 -3 4 4 9 15 9 10 1 19 0 19 -2z m-1931 -25 c1 13 2 13 11 0 7
-11 5 -18 -6 -27 -9 -7 -11 -14 -5 -17 11 -7 34 28 24 37 -3 4 9 1 26 -6 29
-11 45 -47 20 -47 -5 0 -8 -3 -6 -7 3 -5 -2 -14 -10 -22 -12 -11 -14 -10 -11
5 2 11 10 25 18 32 13 11 11 12 -10 10 -16 -2 -25 -9 -25 -20 0 -9 -4 -20 -9
-25 -5 -4 -6 -3 -2 5 5 8 1 11 -16 8 -13 -3 -29 -5 -36 -5 -7 -1 -11 -4 -9 -8
2 -5 -4 -16 -15 -25 -10 -10 -18 -14 -18 -8 0 5 -8 7 -17 3 -10 -3 -15 -2 -10
2 4 5 0 19 -8 32 -14 20 -14 23 -1 23 9 0 34 19 57 41 38 38 43 40 50 23 5
-13 8 -14 8 -4z m1171 6 c0 -3 -4 -8 -10 -11 -5 -3 -10 -1 -10 4 0 6 5 11 10
11 6 0 10 -2 10 -4z m-1356 -28 c-5 -8 -1 -9 12 -4 14 5 16 4 7 -5 -13 -13
-37 -3 -28 12 4 5 8 9 11 9 3 0 2 -5 -2 -12z m-81 -23 c-3 -9 -8 -14 -10 -11
-3 3 -2 9 2 15 9 16 15 13 8 -4z m1186 -6 c-7 -4 -17 -5 -22 -2 -5 3 -3 9 4
14 7 4 17 5 22 2 5 -3 3 -9 -4 -14z m-1104 -9 c3 -5 1 -10 -4 -10 -6 0 -11 5
-11 10 0 6 2 10 4 10 3 0 8 -4 11 -10z m1259 -18 c3 -5 -1 -9 -9 -9 -8 0 -15
4 -15 9 0 4 4 8 9 8 6 0 12 -4 15 -8z m-184 -14 c0 -10 2 -10 9 0 11 19 22 -8
14 -37 -6 -23 -18 -27 -29 -9 -5 7 -3 8 5 3 8 -4 7 4 -3 24 -9 17 -12 31 -6
31 5 0 10 -6 10 -12z m-55 -36 c-8 -8 -25 10 -19 20 4 6 9 5 15 -3 4 -7 6 -15
4 -17z m28 -7 c-10 -14 -22 -25 -27 -25 -5 0 -1 9 9 20 10 11 15 20 11 20 -4
0 -4 5 -1 10 4 6 11 8 16 5 5 -4 1 -17 -8 -30z m-652 -9 c-9 -11 -7 -13 14
-13 20 0 23 2 14 13 -11 14 -5 19 16 14 26 -6 51 -5 56 4 4 5 12 -1 18 -13 8
-15 9 -21 1 -21 -6 0 -9 -4 -5 -9 3 -5 0 -13 -6 -17 -7 -4 -9 -3 -6 3 7 11
-17 36 -37 39 -7 1 -18 -7 -24 -17 -9 -14 -8 -21 3 -33 20 -20 19 -25 -5 -23
-12 1 -20 8 -19 17 3 30 -1 39 -14 34 -7 -2 -21 3 -32 12 -11 8 -15 13 -9 10
7 -3 17 1 24 9 7 9 15 13 18 10 3 -2 0 -11 -7 -19z m197 0 c28 -9 28 -21 0
-23 -26 -2 -60 15 -53 27 5 9 17 8 53 -4z m609 -7 c-1 -12 -5 -15 -12 -9 -7 6
-15 2 -23 -11 -7 -10 -20 -19 -29 -19 -16 0 -10 14 8 16 5 1 12 2 15 3 4 0 0
9 -7 18 -12 15 -12 16 4 10 9 -3 17 -3 17 2 0 4 6 8 14 8 8 0 14 -8 13 -18z
m-862 1 c3 -5 1 -10 -4 -10 -6 0 -11 5 -11 10 0 6 2 10 4 10 3 0 8 -4 11 -10z
m626 -22 c11 -11 19 -25 19 -29 0 -4 3 -15 6 -23 5 -12 2 -15 -10 -10 -9 3
-16 12 -16 19 0 7 -6 15 -14 18 -8 3 -14 15 -13 26 2 26 5 26 28 -1z m-591 -8
c0 -5 -2 -10 -4 -10 -3 0 -8 5 -11 10 -3 6 -1 10 4 10 6 0 11 -4 11 -10z m359
-17 c4 -3 -28 2 -47 6 -2 1 0 6 3 11 5 8 12 7 23 -2 10 -7 19 -14 21 -15z
m-258 0 c13 -16 12 -17 -3 -4 -17 13 -22 21 -14 21 2 0 10 -8 17 -17z m74 7
c-3 -5 -12 -10 -18 -10 -7 0 -6 4 3 10 19 12 23 12 15 0z m-154 -9 c-9 -6 -10
-11 -2 -15 6 -4 11 -13 11 -19 0 -7 -7 -3 -15 7 -15 20 -12 36 8 36 8 0 8 -3
-2 -9z m169 -16 c0 -8 -59 -35 -77 -35 -10 1 -1 7 20 15 21 7 41 16 44 19 8 7
13 8 13 1z m173 -16 c-3 -10 0 -19 6 -19 6 0 11 -9 11 -20 0 -11 -5 -20 -11
-20 -5 0 -7 -5 -3 -12 4 -6 3 -8 -4 -5 -12 8 -44 -2 -38 -12 3 -4 1 -13 -5
-21 -7 -12 -9 -12 -9 3 0 14 -5 17 -21 12 -16 -5 -20 -3 -17 12 2 13 -3 17
-19 16 -31 -4 -29 13 2 19 15 3 22 1 18 -5 -4 -6 1 -8 13 -4 10 3 30 8 44 12
21 5 20 4 -5 -9 l-30 -15 29 4 c42 6 51 19 32 46 -14 20 -20 20 -18 -1 0 -3
-9 -7 -21 -7 -20 -2 -20 -1 -4 8 9 6 17 16 17 22 0 7 8 13 19 14 14 1 17 -3
14 -18z m347 11 c0 -5 -5 -10 -11 -10 -5 0 -7 5 -4 10 3 6 8 10 11 10 2 0 4
-4 4 -10z m27 -5 c0 -8 -4 -12 -9 -9 -5 3 -6 10 -3 15 9 13 12 11 12 -6z m-83
-3 c3 -5 -1 -9 -9 -9 -8 0 -12 4 -9 9 3 4 7 8 9 8 2 0 6 -4 9 -8z m-480 -31
c3 -5 -1 -14 -8 -20 -12 -10 -13 -8 -9 8 6 23 9 25 17 12z m321 -1 c3 -5 1
-10 -4 -10 -6 0 -11 5 -11 10 0 6 2 10 4 10 3 0 8 -4 11 -10z m232 -22 c-3 -7
-5 -2 -5 12 0 14 2 19 5 13 2 -7 2 -19 0 -25z m-177 12 c0 -5 -4 -10 -10 -10
-5 0 -10 5 -10 10 0 6 5 10 10 10 6 0 10 -4 10 -10z m-130 -20 c-6 -11 -15
-18 -21 -15 -5 4 -9 1 -9 -4 0 -6 5 -11 10 -11 6 0 10 -4 10 -10 0 -15 -17
-12 -24 5 -7 19 3 47 15 39 5 -3 9 0 9 5 0 6 5 11 10 11 7 0 7 -7 0 -20z m-60
-40 c1 8 6 4 11 -9 5 -13 7 -26 4 -29 -3 -3 -5 0 -5 6 0 7 -9 12 -20 12 -20 0
-26 11 -13 23 4 4 10 2 15 -5 6 -10 8 -9 8 2z m86 -42 c0 -10 -4 -18 -8 -18
-4 0 -8 5 -8 10 0 6 -3 9 -7 9 -18 -3 -33 2 -33 9 0 5 13 9 28 9 20 0 28 -5
28 -19z m368 -37 c3 -5 -6 -8 -19 -8 -14 0 -25 3 -25 8 0 5 9 9 19 9 11 0 22
-4 25 -9z m55 -12 c23 13 30 -2 9 -16 -9 -5 -1 -10 22 -13 24 -3 38 -13 47
-30 12 -24 11 -26 -43 -51 -30 -15 -64 -25 -75 -22 -20 6 -42 36 -33 46 3 3
-13 3 -35 0 -41 -6 -47 0 -43 38 1 6 -27 5 -58 -2 -8 -2 -14 1 -13 8 2 7 -4
10 -12 7 -8 -4 -15 -1 -15 5 0 6 9 11 20 11 11 0 20 -5 20 -11 0 -5 5 -7 10
-4 6 4 7 12 4 18 -5 8 -3 8 7 0 16 -15 33 -17 24 -3 -3 6 -2 10 3 10 6 0 14
-12 20 -28 6 -17 17 -28 31 -29 19 -2 18 0 -7 22 -22 19 -25 26 -14 36 9 10
15 10 23 2 6 -6 18 -9 25 -6 8 3 14 -1 14 -8 0 -7 7 -3 16 10 12 16 19 19 24
11 6 -9 13 -9 29 -1z m-159 -69 c0 -5 -7 -7 -15 -4 -8 4 -15 8 -15 10 0 2 7 4
15 4 8 0 15 -4 15 -10z"/>
<path d="M5411 7572 c-10 -11 -3 -12 41 -6 130 17 146 23 57 21 -56 -1 -91 -7
-98 -15z"/>
<path d="M5520 7554 c-22 -12 -23 -14 -5 -14 11 0 30 -3 41 -6 16 -4 23 0 27
15 4 17 1 21 -16 20 -12 -1 -33 -7 -47 -15z"/>
<path d="M3080 7212 c0 -4 14 -9 32 -10 37 -3 33 7 -6 14 -14 2 -26 1 -26 -4z"/>
<path d="M2895 7190 c-19 -8 -19 -9 2 -9 12 -1 25 4 28 9 7 12 -2 12 -30 0z"/>
<path d="M3155 7191 c3 -5 -3 -12 -12 -14 -14 -4 -13 -5 4 -6 27 -1 39 15 17
23 -8 3 -12 2 -9 -3z"/>
<path d="M3099 7143 c-13 -16 -12 -17 4 -4 9 7 17 15 17 17 0 8 -8 3 -21 -13z"/>
<path d="M3055 7140 c3 -5 8 -10 11 -10 2 0 4 5 4 10 0 6 -5 10 -11 10 -5 0
-7 -4 -4 -10z"/>
<path d="M3015 7090 c-3 -5 -1 -10 4 -10 6 0 11 5 11 10 0 6 -2 10 -4 10 -3 0
-8 -4 -11 -10z"/>
<path d="M3010 7056 c0 -2 9 -6 20 -9 11 -3 20 -1 20 4 0 5 -9 9 -20 9 -11 0
-20 -2 -20 -4z"/>
<path d="M2875 6950 c3 -5 13 -10 21 -10 8 0 14 5 14 10 0 6 -9 10 -21 10 -11
0 -17 -4 -14 -10z"/>
<path d="M2920 6949 c0 -5 5 -7 10 -4 6 3 10 8 10 11 0 2 -4 4 -10 4 -5 0 -10
-5 -10 -11z"/>
<path d="M2685 6910 c3 -5 8 -10 11 -10 2 0 4 5 4 10 0 6 -5 10 -11 10 -5 0
-7 -4 -4 -10z"/>
<path d="M2880 6879 c0 -5 5 -7 10 -4 6 3 10 8 10 11 0 2 -4 4 -10 4 -5 0 -10
-5 -10 -11z"/>
<path d="M2797 6874 c-7 -7 17 -34 31 -34 17 0 21 28 6 34 -20 8 -29 8 -37 0z"/>
<path d="M2585 6850 c3 -5 8 -10 11 -10 2 0 4 5 4 10 0 6 -5 10 -11 10 -5 0
-7 -4 -4 -10z"/>
<path d="M4458 6003 c6 -2 18 -2 25 0 6 3 1 5 -13 5 -14 0 -19 -2 -12 -5z"/>
<path d="M2700 6560 c-11 -7 -6 -10 20 -10 26 0 31 3 20 10 -8 5 -17 10 -20
10 -3 0 -12 -5 -20 -10z"/>
<path d="M2790 6548 c0 -5 4 -7 9 -3 5 3 12 1 16 -5 4 -6 11 -8 16 -5 16 11
10 20 -16 21 -14 1 -25 -2 -25 -8z"/>
<path d="M2667 6503 c6 -15 29 -18 37 -4 3 5 -5 11 -18 13 -17 4 -23 1 -19 -9z"/>
<path d="M2618 6473 c7 -3 16 -2 19 1 4 3 -2 6 -13 5 -11 0 -14 -3 -6 -6z"/>
<path d="M6545 6130 c-3 -5 -1 -10 4 -10 6 0 11 5 11 10 0 6 -2 10 -4 10 -3 0
-8 -4 -11 -10z"/>
<path d="M7011 6204 c0 -11 3 -14 6 -6 3 7 2 16 -1 19 -3 4 -6 -2 -5 -13z"/>
<path d="M6973 6173 c9 -2 23 -2 30 0 6 3 -1 5 -18 5 -16 0 -22 -2 -12 -5z"/>
<path d="M2058 5963 c6 -2 18 -2 25 0 6 3 1 5 -13 5 -14 0 -19 -2 -12 -5z"/>
<path d="M5340 5844 c36 -8 100 -9 100 -2 0 5 -26 7 -57 7 -32 -1 -51 -3 -43
-5z"/>
<path d="M5078 5760 c-3 -16 -1 -30 4 -30 4 0 8 14 8 30 0 17 -2 30 -4 30 -2
0 -6 -13 -8 -30z"/>
<path d="M3096 5863 c-6 -14 -5 -15 5 -6 7 7 10 15 7 18 -3 3 -9 -2 -12 -12z"/>
<path d="M7150 5576 c0 -18 -3 -61 -6 -95 -4 -36 -3 -61 3 -61 5 0 10 43 12
95 1 52 0 95 -3 95 -3 0 -6 -15 -6 -34z"/>
<path d="M6968 5433 c6 -2 18 -2 25 0 6 3 1 5 -13 5 -14 0 -19 -2 -12 -5z"/>
<path d="M5160 5556 c0 -2 9 -6 20 -9 11 -3 18 -1 14 4 -5 9 -34 13 -34 5z"/>
<path d="M4910 5430 c-20 -6 -21 -8 -5 -8 11 0 29 3 40 8 25 11 -1 11 -35 0z"/>
<path d="M5253 5533 c9 -2 23 -2 30 0 6 3 -1 5 -18 5 -16 0 -22 -2 -12 -5z"/>
<path d="M3631 4974 c0 -11 3 -14 6 -6 3 7 2 16 -1 19 -3 4 -6 -2 -5 -13z"/>
<path d="M3848 4323 c-9 -2 -21 -18 -27 -34 -6 -17 -15 -28 -21 -24 -5 3 -10
-1 -10 -9 0 -9 -12 -23 -27 -33 -16 -10 -30 -21 -33 -25 -3 -4 -14 2 -23 13
-10 11 -21 17 -26 14 -15 -9 0 -44 31 -70 30 -25 55 -34 43 -15 -3 6 3 23 14
39 11 15 18 31 16 35 -3 3 -2 4 1 1 4 -2 20 3 37 11 23 13 56 15 153 12 111
-3 124 -1 124 14 0 21 -37 48 -65 48 -12 0 -26 5 -33 12 -11 11 -121 19 -154
11z"/>
<path d="M4465 4245 c-22 -7 -31 -13 -20 -13 11 0 36 6 55 13 45 17 17 18 -35
0z"/>
<path d="M5165 4199 c4 -5 18 -9 32 -9 32 0 27 7 -10 14 -16 3 -25 1 -22 -5z"/>
<path d="M5645 4150 c-3 -6 1 -7 9 -4 18 7 21 14 7 14 -6 0 -13 -4 -16 -10z"/>
<path d="M5428 4113 c7 -3 16 -2 19 1 4 3 -2 6 -13 5 -11 0 -14 -3 -6 -6z"/>
<path d="M6328 4098 c5 -21 4 -22 -11 -9 -15 12 -17 12 -11 -3 9 -23 41 -20
47 5 3 12 3 18 0 15 -4 -3 -12 -1 -19 5 -10 8 -11 5 -6 -13z"/>
<path d="M6370 4109 c0 -5 5 -7 10 -4 6 3 10 8 10 11 0 2 -4 4 -10 4 -5 0 -10
-5 -10 -11z"/>
<path d="M5610 4095 c-19 -7 -28 -14 -20 -14 8 0 29 6 45 14 39 17 21 18 -25
0z"/>
<path d="M5508 4093 c7 -3 16 -2 19 1 4 3 -2 6 -13 5 -11 0 -14 -3 -6 -6z"/>
<path d="M6035 4039 c-4 -6 -5 -12 -2 -15 2 -3 7 2 10 11 7 17 1 20 -8 4z"/>
<path d="M5620 3920 c-19 -11 -31 -19 -27 -20 11 0 67 29 67 35 0 7 -1 7 -40
-15z"/>
<path d="M6340 3910 c-13 -9 -13 -11 0 -20 9 -6 18 -6 24 0 15 15 -6 31 -24
20z"/>
<path d="M1360 3890 c0 -5 5 -10 11 -10 5 0 7 5 4 10 -3 6 -8 10 -11 10 -2 0
-4 -4 -4 -10z"/>
<path d="M4115 3700 c-16 -7 -17 -9 -3 -9 9 -1 20 4 23 9 7 11 7 11 -20 0z"/>
<path d="M1584 3840 c-21 -8 -40 -50 -23 -50 8 0 13 15 10 33 -1 4 7 3 18 -2
14 -8 20 -7 25 4 7 19 -4 24 -30 15z"/>
<path d="M7355 3440 c-3 -6 1 -7 9 -4 18 7 21 14 7 14 -6 0 -13 -4 -16 -10z"/>
<path d="M1210 3549 c0 -5 5 -7 10 -4 6 3 10 8 10 11 0 2 -4 4 -10 4 -5 0 -10
-5 -10 -11z"/>
<path d="M5790 3060 c-8 -5 -10 -10 -5 -10 6 0 17 5 25 10 8 5 11 10 5 10 -5
0 -17 -5 -25 -10z"/>
<path d="M5955 3060 c-4 -6 -11 -7 -17 -4 -7 4 -8 2 -4 -4 10 -16 23 -15 30 3
6 17 0 20 -9 5z"/>
<path d="M5240 2975 c-14 -8 -20 -14 -15 -14 6 0 21 6 35 14 14 8 21 14 15 14
-5 0 -21 -6 -35 -14z"/>
<path d="M5050 2890 c-8 -5 -10 -10 -5 -10 6 0 17 5 25 10 8 5 11 10 5 10 -5
0 -17 -5 -25 -10z"/>
<path d="M4560 2670 c-8 -5 -10 -10 -5 -10 6 0 17 5 25 10 8 5 11 10 5 10 -5
0 -17 -5 -25 -10z"/>
<path d="M5408 2663 c6 -2 9 -10 6 -15 -4 -7 -2 -8 4 -4 18 11 14 26 -5 25
-11 0 -13 -3 -5 -6z"/>
<path d="M5378 2643 c7 -3 16 -2 19 1 4 3 -2 6 -13 5 -11 0 -14 -3 -6 -6z"/>
<path d="M4390 2386 c0 -2 7 -7 16 -10 8 -3 12 -2 9 4 -6 10 -25 14 -25 6z"/>
<path d="M6950 2740 c-12 -7 -10 -9 7 -7 12 0 19 5 17 9 -6 10 -6 10 -24 -2z"/>
<path d="M6044 2694 c-18 -14 -18 -14 6 -3 31 14 36 19 24 19 -6 0 -19 -7 -30
-16z"/>
<path d="M5804 2564 c-18 -14 -18 -15 4 -4 12 6 22 13 22 15 0 8 -5 6 -26 -11z"/>
<path d="M5840 2530 c0 -5 5 -10 11 -10 5 0 7 5 4 10 -3 6 -8 10 -11 10 -2 0
-4 -4 -4 -10z"/>
<path d="M5016 2394 c-19 -18 -20 -30 -4 -40 6 -4 8 -3 5 3 -9 15 19 36 35 27
10 -6 9 -3 -1 9 -16 21 -16 21 -35 1z"/>
<path d="M5897 2403 c-4 -3 -7 -13 -7 -21 0 -11 3 -12 13 -3 8 6 18 7 23 3 4
-4 2 1 -5 11 -15 19 -15 19 -24 10z"/>
<path d="M5935 2400 c3 -5 8 -10 11 -10 2 0 4 5 4 10 0 6 -5 10 -11 10 -5 0
-7 -4 -4 -10z"/>
<path d="M5967 2393 c-4 -3 -7 -11 -7 -17 0 -6 5 -5 12 2 6 6 9 14 7 17 -3 3
-9 2 -12 -2z"/>
<path d="M5801 2254 c0 -11 3 -14 6 -6 3 7 2 16 -1 19 -3 4 -6 -2 -5 -13z"/>
<path d="M5657 2366 c-3 -8 0 -22 7 -32 10 -14 15 -14 21 -4 5 8 4 15 -3 18
-6 2 -8 10 -5 18 3 8 1 14 -5 14 -5 0 -12 -6 -15 -14z"/>
<path d="M5609 2360 c-1 -8 -1 -19 0 -24 1 -5 -6 -3 -15 5 -16 13 -16 12 -5
-9 7 -12 16 -20 21 -17 5 3 13 -2 18 -10 8 -15 10 -15 22 0 12 14 10 20 -13
43 -19 19 -27 22 -28 12z"/>
<path d="M5535 2319 c-4 -6 -5 -12 -2 -15 2 -3 7 2 10 11 7 17 1 20 -8 4z"/>
<path d="M5523 2226 c-10 -11 -9 -15 2 -20 8 -3 15 0 15 6 0 6 6 5 18 -3 14
-11 13 -10 -2 9 -11 12 -20 22 -20 22 -1 -1 -6 -7 -13 -14z"/>
<path d="M5504 2183 c5 -9 1 -13 -10 -13 -30 0 -7 -12 28 -15 42 -3 52 3 37
21 -9 12 -14 12 -20 3 -6 -10 -11 -10 -25 2 -11 9 -15 9 -10 2z"/>
<path d="M5510 2141 c-8 -6 -17 -8 -21 -5 -4 2 -10 0 -14 -5 -3 -6 -11 -9 -18
-7 -7 1 -9 1 -4 -1 4 -3 4 -9 1 -15 -4 -6 3 -5 15 1 12 7 25 10 29 7 4 -3 13
4 20 15 14 21 13 22 -8 10z"/>
<path d="M5780 1889 c7 -11 14 -18 17 -15 8 8 -5 36 -17 36 -7 0 -7 -6 0 -21z"/>
<path d="M4863 7910 c0 -36 2 -50 4 -32 2 17 2 47 0 65 -2 17 -4 3 -4 -33z"/>
<path d="M5018 7823 c7 -3 16 -2 19 1 4 3 -2 6 -13 5 -11 0 -14 -3 -6 -6z"/>
<path d="M5078 7813 c6 -2 18 -2 25 0 6 3 1 5 -13 5 -14 0 -19 -2 -12 -5z"/>
<path d="M5133 7803 c9 -2 23 -2 30 0 6 3 -1 5 -18 5 -16 0 -22 -2 -12 -5z"/>
<path d="M3402 7624 l3 -35 62 -4 c37 -2 61 1 57 6 -3 6 11 7 33 4 21 -3 61
-2 88 3 50 8 50 8 -90 35 -78 15 -144 27 -148 27 -5 0 -7 -16 -5 -36z"/>
<path d="M7753 7403 c17 -3 27 -11 28 -21 0 -11 3 -12 6 -4 2 6 14 12 26 13
20 1 20 2 -3 9 -14 4 -38 8 -55 8 -30 -1 -30 -1 -2 -5z"/>
<path d="M7865 7390 c-4 -6 3 -10 14 -10 25 0 27 6 6 13 -8 4 -17 2 -20 -3z"/>
<path d="M7930 7376 c0 -9 30 -14 35 -6 4 6 -3 10 -14 10 -12 0 -21 -2 -21 -4z"/>
<path d="M8000 7358 c-28 -11 -540 -144 -850 -220 -113 -28 -206 -52 -208 -54
-7 -5 -6 -204 1 -210 4 -4 7 40 7 97 l0 105 113 27 c61 15 115 27 120 27 4 0
7 -9 7 -20 0 -13 5 -18 15 -14 8 4 15 2 15 -4 0 -13 -29 -24 -43 -15 -9 5 -9
3 0 -8 6 -8 13 -25 15 -39 2 -21 -1 -25 -21 -24 l-23 1 23 -17 c12 -10 24 -27
26 -39 3 -23 -12 -29 -20 -8 -3 7 -6 6 -6 -5 -1 -17 -37 -35 -48 -24 -3 3 0
14 8 23 13 16 12 17 -3 5 -10 -8 -23 -10 -30 -6 -8 5 -8 1 2 -11 14 -17 13
-18 -21 -13 -31 5 -38 2 -54 -22 -11 -16 -29 -32 -40 -35 -18 -6 -16 -8 14
-21 28 -13 36 -13 42 -2 7 11 9 11 9 -1 0 -8 6 -11 16 -7 8 3 13 2 9 -3 -8
-13 122 -26 138 -13 6 5 39 13 72 17 126 14 259 48 485 125 47 16 166 49 265
75 247 64 248 64 234 81 -6 8 -20 14 -30 14 -19 0 -23 9 -20 43 1 9 -4 17 -13
17 -10 0 -13 -6 -9 -17 6 -16 5 -16 -10 -4 -21 17 -13 31 18 31 22 0 24 5 16
38 -1 2 -8 -4 -17 -12 -20 -21 -34 -12 -34 22 -1 23 -2 25 -11 10 -5 -10 -15
-18 -21 -18 -7 0 -7 4 1 13 8 11 6 13 -12 12 -15 -1 -22 -8 -21 -22 0 -11 -6
-20 -13 -20 -7 0 -11 2 -9 5 7 6 -15 62 -24 62 -5 0 -14 -8 -19 -17 -6 -10
-11 -13 -11 -6 0 6 5 15 10 18 6 3 10 11 10 16 0 6 -4 8 -9 5 -13 -8 -20 16
-14 47 3 15 4 27 2 26 -2 0 -15 -5 -29 -11z m3 -63 c-1 -22 -2 -51 -2 -65 -1
-14 -4 -20 -9 -14 -8 13 -44 15 -36 2 4 -5 -3 -12 -15 -15 -12 -3 -21 -9 -21
-14 0 -19 -16 -8 -17 11 -1 11 2 18 6 15 5 -2 11 6 13 20 4 20 1 25 -14 25
-14 0 -18 5 -14 18 4 12 1 19 -7 19 -8 0 -11 -11 -9 -32 2 -18 -1 -36 -7 -39
-8 -5 -8 -13 -1 -27 8 -14 8 -24 0 -37 -10 -15 -11 -14 -7 5 3 13 1 26 -5 29
-5 3 -7 12 -4 20 3 7 1 16 -5 20 -6 3 -8 13 -4 22 5 13 3 13 -14 -2 -16 -14
-18 -23 -10 -49 5 -17 5 -33 0 -36 -4 -4 -7 -14 -5 -25 2 -14 0 -16 -9 -7 -12
12 -17 82 -5 75 4 -2 6 5 5 16 -1 22 -13 27 -20 8 -3 -8 -6 -5 -6 5 -1 10 -5
16 -10 13 -5 -4 -8 2 -7 11 4 24 26 29 27 6 1 -16 2 -16 6 -1 3 11 21 22 46
29 23 6 62 17 87 24 66 20 75 17 73 -30z m-257 -35 c0 -11 -3 -20 -7 -20 -4 0
-5 -9 -2 -20 3 -12 2 -20 -3 -19 -22 4 -32 -3 -36 -26 -3 -13 0 -26 5 -28 6
-2 8 -11 4 -21 -4 -10 -12 -14 -18 -10 -8 4 -9 3 -5 -5 4 -6 12 -9 17 -6 5 4
9 1 9 -4 0 -6 -5 -11 -11 -11 -5 0 -7 -4 -4 -10 3 -5 2 -10 -4 -10 -5 0 -12 6
-14 13 -4 9 -8 9 -16 -3 -5 -8 -8 -17 -6 -20 2 -3 -7 -6 -20 -6 -20 0 -24 4
-21 22 3 13 -1 25 -10 28 -12 5 -12 2 -3 -16 10 -18 9 -20 -5 -15 -22 9 -20
-6 4 -28 11 -10 18 -20 15 -23 -5 -5 -54 43 -51 50 0 2 -3 0 -8 -4 -18 -15
-28 -8 -15 9 8 10 9 14 2 10 -6 -4 -14 -3 -18 3 -5 9 15 15 38 11 4 0 7 4 7
10 0 6 -7 8 -16 5 -8 -3 -12 -2 -9 3 3 5 1 12 -4 15 -8 5 -11 -1 -20 -39 -2
-5 -8 -16 -14 -24 -9 -11 -9 -13 -1 -8 18 10 25 -18 10 -39 -9 -12 -15 -14
-20 -6 -4 7 -12 12 -17 12 -6 0 -7 -4 -4 -10 3 -5 2 -10 -3 -10 -5 0 -8 30 -7
68 1 37 -1 76 -6 87 -9 23 -12 9 -9 -42 2 -35 1 -36 -25 -27 -14 6 -14 8 2 26
9 11 13 19 8 18 -6 -2 -12 -2 -15 0 -3 1 -16 4 -30 6 -23 4 -23 4 -6 -9 18
-13 18 -14 1 -20 -10 -4 -15 -13 -11 -22 3 -8 -3 -19 -12 -24 -9 -6 -12 -11
-6 -11 7 0 14 -7 18 -15 3 -8 2 -14 -2 -14 -19 3 -23 -2 -12 -16 17 -21 -3
-45 -32 -37 -16 4 -19 2 -13 -9 5 -9 1 -7 -11 3 -12 11 -28 15 -42 11 -13 -3
-22 -1 -22 6 0 6 7 11 14 11 12 0 13 6 4 30 -8 24 -13 28 -23 20 -19 -16 -28
5 -14 29 7 10 18 17 25 14 6 -2 15 0 18 5 3 5 -6 8 -19 6 -16 -1 -29 4 -35 16
-8 16 1 20 93 44 56 15 176 46 267 70 91 25 167 45 170 45 3 1 6 -8 6 -19z
m98 -45 c-4 -8 -8 -15 -10 -15 -2 0 -4 7 -4 15 0 8 4 15 10 15 5 0 7 -7 4 -15z
m128 -18 c-7 -8 -9 -16 -6 -19 2 -3 -2 -8 -11 -11 -14 -6 -14 -3 1 24 8 17 18
28 21 25 3 -3 1 -12 -5 -19z m178 13 c-20 -13 -33 -13 -25 0 3 6 14 10 23 10
15 0 15 -2 2 -10z m-408 -34 c-5 -6 -8 -26 -6 -43 1 -18 -1 -33 -6 -33 -4 0
-7 8 -5 18 1 9 -1 22 -6 28 -13 16 1 53 17 47 9 -3 11 -10 6 -17z m38 -6 c0
-5 -4 -10 -10 -10 -5 0 -10 5 -10 10 0 6 5 10 10 10 6 0 10 -4 10 -10z m160
-25 c0 -2 -8 -3 -18 -2 -10 0 -19 7 -19 13 0 9 5 10 19 3 10 -5 18 -12 18 -14z
m-528 -27 c-11 -11 -5 -41 7 -34 4 3 13 1 20 -4 11 -6 8 -11 -9 -20 -15 -8
-20 -8 -16 -1 4 6 3 11 -3 11 -5 0 -12 -6 -15 -12 -2 -7 -4 2 -3 20 1 19 5 36
9 38 5 3 5 10 2 16 -5 7 -2 8 5 3 9 -5 9 -11 3 -17z m368 -52 c0 -2 -6 -9 -14
-15 -11 -9 -16 -9 -22 0 -4 7 -3 9 4 5 6 -3 13 -2 17 4 6 10 15 14 15 6z
m-226 -42 c3 -8 2 -12 -4 -9 -6 3 -10 10 -10 16 0 14 7 11 14 -7z m-317 -10
c-3 -3 -12 -4 -19 -1 -8 3 -5 6 6 6 11 1 17 -2 13 -5z m194 -37 c-10 -9 -11
-8 -5 6 3 10 9 15 12 12 3 -3 0 -11 -7 -18z m54 13 c-3 -5 -10 -10 -16 -10 -5
0 -9 5 -9 10 0 6 7 10 16 10 8 0 12 -4 9 -10z m-245 -32 c0 -5 -4 -8 -10 -8
-5 0 -10 10 -10 23 0 18 2 19 10 7 5 -8 10 -18 10 -22z"/>
<path d="M7479 7073 c-13 -16 -12 -17 4 -4 9 7 17 15 17 17 0 8 -8 3 -21 -13z"/>
<path d="M7227 7073 c-4 -3 -7 -11 -7 -17 0 -7 3 -7 8 0 4 7 16 14 27 17 19 5
19 5 -1 6 -11 0 -24 -2 -27 -6z"/>
<path d="M7307 7032 c-20 -22 -22 -38 -5 -48 6 -4 8 -3 5 3 -3 5 0 21 8 36 16
32 14 34 -8 9z"/>
<path d="M7490 7039 c0 -15 18 -19 23 -6 3 8 -1 14 -9 14 -8 0 -14 -4 -14 -8z"/>
<path d="M7346 6993 c-6 -14 -5 -15 5 -6 7 7 10 15 7 18 -3 3 -9 -2 -12 -12z"/>
<path d="M2276 7132 c-3 -5 1 -9 9 -9 8 0 12 4 9 9 -3 4 -7 8 -9 8 -2 0 -6 -4
-9 -8z"/>
<path d="M2160 7089 c0 -5 5 -7 10 -4 6 3 10 8 10 11 0 2 -4 4 -10 4 -5 0 -10
-5 -10 -11z"/>
<path d="M2286 7082 c-3 -5 1 -9 9 -9 8 0 12 4 9 9 -3 4 -7 8 -9 8 -2 0 -6 -4
-9 -8z"/>
<path d="M2224 7059 c-3 -5 9 -9 25 -9 17 0 31 2 31 4 0 8 -51 13 -56 5z"/>
<path d="M2183 7034 c0 -7 4 -11 8 -8 4 2 9 -1 11 -7 2 -6 14 -5 33 5 30 16
30 16 5 17 -14 0 -32 2 -41 4 -9 1 -16 -3 -16 -11z"/>
<path d="M2367 7043 c-3 -5 6 -9 19 -9 13 -1 21 2 18 7 -6 11 -31 12 -37 2z"/>
<path d="M7070 7035 c14 -17 13 -18 -2 -12 -10 3 -20 1 -24 -5 -4 -6 -3 -8 4
-4 6 3 13 2 17 -4 3 -5 2 -10 -3 -10 -6 0 -13 -8 -16 -17 -6 -16 -6 -16 12 0
20 18 41 7 43 -22 0 -11 2 -12 6 -3 2 6 9 10 14 7 5 -4 6 1 3 9 -3 9 -13 16
-21 16 -9 0 -12 6 -9 18 4 11 -2 22 -17 31 -21 13 -21 13 -7 -4z"/>
<path d="M2310 7036 c0 -2 7 -7 16 -10 8 -3 12 -2 9 4 -6 10 -25 14 -25 6z"/>
<path d="M2147 6999 c7 -7 15 -10 18 -7 3 3 -2 9 -12 12 -14 6 -15 5 -6 -5z"/>
<path d="M7009 6981 c6 -10 7 -22 3 -27 -4 -5 -1 -4 6 2 13 11 6 44 -9 44 -6
0 -6 -8 0 -19z"/>
<path d="M7170 6970 c0 -5 5 -10 11 -10 5 0 7 5 4 10 -3 6 -8 10 -11 10 -2 0
-4 -4 -4 -10z"/>
<path d="M2180 6960 c0 -5 7 -7 15 -4 8 4 15 8 15 10 0 2 -7 4 -15 4 -8 0 -15
-4 -15 -10z"/>
<path d="M7058 6964 c-8 -8 3 -44 13 -44 5 0 9 4 9 9 0 5 3 16 6 25 6 15 -16
23 -28 10z"/>
<path d="M2062 6932 c2 -9 10 -16 17 -14 7 1 19 -3 27 -9 12 -10 13 -9 8 5 -4
10 -1 16 7 16 23 0 1 11 -31 15 -25 3 -31 1 -28 -13z"/>
<path d="M2190 6932 c0 -5 7 -9 15 -9 8 0 12 4 9 9 -3 4 -9 8 -15 8 -5 0 -9
-4 -9 -8z"/>
<path d="M6438 6893 c7 -3 16 -2 19 1 4 3 -2 6 -13 5 -11 0 -14 -3 -6 -6z"/>
<path d="M2000 6846 c0 -2 16 -16 35 -30 19 -15 35 -23 35 -17 0 5 -16 18 -35
30 -19 11 -35 19 -35 17z"/>
<path d="M1759 5538 c-6 -21 -5 -38 2 -38 5 0 9 9 9 20 0 16 -7 28 -11 18z"/>
<path d="M2738 5484 c-3 -27 -7 -29 -118 -56 -63 -15 -126 -27 -138 -28 -13 0
-72 16 -130 36 l-106 36 -73 -23 c-72 -22 -73 -22 -135 -5 -99 29 -107 30 -78
12 63 -39 153 -58 285 -62 72 -1 150 -7 175 -13 54 -13 180 -14 180 -2 0 4 28
16 63 25 34 10 89 30 122 45 l60 28 -35 10 c-19 6 -43 14 -52 18 -13 5 -17 0
-20 -21z"/>
<path d="M3280 5299 c-8 -5 -71 -25 -138 -44 -68 -19 -127 -37 -131 -40 -4 -2
-52 9 -106 25 -115 35 -105 33 -105 16 0 -14 147 -72 209 -82 21 -3 89 5 163
20 70 14 145 26 167 26 21 0 52 3 70 6 l31 6 -26 20 c-37 30 -116 57 -134 47z"/>
<path d="M3458 5243 c7 -3 16 -2 19 1 4 3 -2 6 -13 5 -11 0 -14 -3 -6 -6z"/>
<path d="M8390 4481 c0 -5 7 -15 17 -22 15 -13 15 -12 4 9 -12 23 -21 28 -21
13z"/>
<path d="M1050 4246 c0 -2 7 -6 15 -10 8 -3 15 -1 15 4 0 6 -7 10 -15 10 -8 0
-15 -2 -15 -4z"/>
<path d="M1008 4213 c7 -3 16 -2 19 1 4 3 -2 6 -13 5 -11 0 -14 -3 -6 -6z"/>
<path d="M983 4193 c-7 -2 -13 -9 -13 -15 0 -6 6 -6 15 2 10 9 15 9 15 1 0 -6
4 -11 10 -11 5 0 7 7 4 15 -6 16 -11 17 -31 8z"/>
<path d="M710 3753 c-46 -15 -46 -15 -25 -23 31 -13 39 -12 53 10 13 21 6 25
-28 13z"/>
<path d="M840 3689 c0 -5 5 -7 10 -4 6 3 10 8 10 11 0 2 -4 4 -10 4 -5 0 -10
-5 -10 -11z"/>
<path d="M810 3679 c0 -5 5 -7 10 -4 6 3 10 8 10 11 0 2 -4 4 -10 4 -5 0 -10
-5 -10 -11z"/>
<path d="M9555 3680 c11 -5 27 -9 35 -9 9 0 8 4 -5 9 -11 5 -27 9 -35 9 -9 0
-8 -4 5 -9z"/>
</g>
</svg>
